<svg xmlns="http://www.w3.org/2000/svg" viewBox="0 0 1044.74 555.43">
    <defs>
        <style>
            .cls-1 {
                font-size: 57.23px;
                font-family: MicrosoftYaHeiUI, MicrosoftYaHeiUI;
            }
            
            .cls-2,
            .cls-5 {
                fill: brown;
            }
            
            .cls-2 {
                stroke: #000;
                stroke-width: 40px;
            }
            
            .cls-2,
            .cls-3 {
                stroke-miterlimit: 10;
            }
            
            .cls-3,
            .cls-6 {
                fill: #399103;
            }
            
            .cls-3 {
                stroke: #000;
                stroke-width: 6px;
            }
            
            .cls-4 {
                fill: #f8ee7b;
            }
        </style>
    </defs>
    <title>AVOMascot</title>
    <g id="Images">
        <path id="Green" class="cls-3" d="M1232.67-1000.76a125.34,125.34,0,0,1,1-13c3.4-33,13.92-86.75,57.37-160.78,33-56.25,49.52-84.38,70.72-85.09,26.54-.89,46.12,32.06,79.12,87.6,39.58,66.6,49.47,123.11,52.53,154.17.83,8.43,1.25,12.64,1.12,17.1-1.53,52.59-48.78,130.92-130.92,130.92A130.92,130.92,0,0,1,1232.67-1000.76Z" transform="translate(-506.6 1267.13)" />
        <path id="Yellow" class="cls-4" d="M1275.87-1006.33a84,84,0,0,1,.65-8.7c2.28-22.12,9.33-58.12,38.44-107.73,22.12-37.69,33.18-56.53,47.38-57,17.78-.6,30.9,21.48,53,58.69,26.52,44.62,33.14,82.48,35.2,103.29a90.81,90.81,0,0,1,.75,11.45c-1,35.23-32.68,87.71-87.71,87.71A87.71,87.71,0,0,1,1275.87-1006.33Z" transform="translate(-506.6 1267.13)" />
        <circle id="circle" class="cls-5" cx="856.99" cy="264.46" r="50.81" />
    </g>
</svg>