<svg width="895" height="732" viewBox="0 0 895 732" fill="none" xmlns="http://www.w3.org/2000/svg">
<circle cx="459.58" cy="348" r="253" transform="rotate(31.2753 459.58 348)" fill="#FD8318"/>
<ellipse cx="422.406" cy="450.613" rx="33.5" ry="35" transform="rotate(31.2753 422.406 450.613)" fill="#F8501B" fill-opacity="0.88"/>
<path d="M675.815 479.345C603.275 598.768 523.503 429.04 404.08 356.5C284.657 283.96 170.805 336.078 243.345 216.655C315.885 97.2316 471.502 59.2254 590.925 131.765C710.348 204.305 748.355 359.922 675.815 479.345Z" fill="#FD8318"/>
<ellipse cx="410.013" cy="443.085" rx="23" ry="24" transform="rotate(31.2753 410.013 443.085)" fill="#F85D1B"/>
<rect x="359.751" y="368.853" width="14.8342" height="82.1012" rx="7.41711" transform="rotate(-58.7247 359.751 368.853)" fill="#F8501B" fill-opacity="0.62"/>
<rect x="269.831" y="250.099" width="14.8342" height="82.1012" rx="7.41711" transform="rotate(-58.7247 269.831 250.099)" fill="#F8501B" fill-opacity="0.62"/>
<rect x="274.778" y="270.849" width="15" height="99" rx="7.5" transform="rotate(-58.7247 274.778 270.849)" fill="#F8501B" fill-opacity="0.62"/>
<path d="M344.114 574.183C468.58 640.261 582.06 532.414 647.58 409C713.099 285.586 702.58 191.604 581.381 127.26C704.795 192.78 751.728 345.941 686.209 469.355C620.689 592.77 467.528 639.703 344.114 574.183Z" fill="#F37100"/>
<path d="M773.737 549.786C765.313 563.654 749.664 573.94 725.823 579.25C701.927 584.573 671.123 584.536 635.121 578.721C563.198 567.105 473.636 532.939 383.969 478.473C294.302 424.008 222.697 360.277 179.235 301.807C157.479 272.538 143.247 245.219 136.955 221.56C130.677 197.955 132.591 179.326 141.015 165.458C149.438 151.59 165.087 141.305 188.929 135.995C212.825 130.672 243.629 130.709 279.631 136.524C351.553 148.14 441.116 182.306 530.783 236.772C620.45 291.237 692.055 354.968 735.517 413.438C757.272 442.706 771.505 470.025 777.797 493.685C784.074 517.29 782.16 535.919 773.737 549.786Z" stroke="#F8501B" stroke-width="30"/>
<path d="M790.505 575.201C780.71 591.325 762.92 603.121 736.611 609.386C710.227 615.668 676.445 616.045 637.173 610.116C558.698 598.267 461.338 561.699 364.193 502.692C267.049 443.684 189.718 374.142 143.029 309.963C119.665 277.845 104.427 247.693 97.8402 221.384C91.2716 195.149 93.5388 173.923 103.333 157.799C113.127 141.675 130.918 129.879 157.227 123.614C183.611 117.332 217.393 116.955 256.665 122.884C335.14 134.733 432.5 171.301 529.644 230.308C626.789 289.316 704.12 358.858 750.808 423.037C774.173 455.155 789.41 485.307 795.998 511.617C802.566 537.851 800.299 559.077 790.505 575.201Z" stroke="#F8501B" stroke-width="30"/>
<path d="M794.979 561.313C785.809 576.41 768.835 587.494 743.238 593.195C717.586 598.909 684.595 598.856 646.12 592.642C569.253 580.227 473.606 543.729 377.887 485.587C282.167 427.445 205.688 359.39 159.238 296.9C135.988 265.621 120.733 236.369 113.979 210.971C107.239 185.627 109.251 165.455 118.421 150.359C127.591 135.262 144.565 124.178 170.162 118.477C195.814 112.763 228.805 112.816 267.28 119.03C344.146 131.445 439.794 167.943 535.513 226.085C631.233 284.227 707.712 352.282 754.162 414.772C777.412 446.051 792.667 475.303 799.421 500.701C806.16 526.045 804.149 546.217 794.979 561.313Z" stroke="#F85D1B" stroke-width="30"/>
<path d="M675.401 483.925C602.861 603.348 523.089 433.62 403.666 361.08C284.243 288.54 170.391 340.658 242.931 221.235C315.471 101.812 471.088 63.8053 590.511 136.345C709.934 208.885 747.941 364.502 675.401 483.925Z" fill="#FD8318"/>
<path d="M581.38 516C581.38 488.5 582.06 532.414 647.58 409C713.099 285.586 702.58 191.604 581.38 127.26C704.795 192.78 752.519 341.086 687 464.5C621.481 587.914 581.38 546.138 581.38 516Z" fill="#F37100"/>
<rect x="351.343" y="241.11" width="14.8342" height="82.1012" rx="7.41711" transform="rotate(-58.7247 351.343 241.11)" fill="#F8501B" fill-opacity="0.62"/>
<rect x="295.325" y="395.24" width="14.8342" height="82.1012" rx="7.41711" transform="rotate(-58.7247 295.325 395.24)" fill="#F8501B" fill-opacity="0.62"/>
<rect x="269.605" y="339.078" width="15" height="45" rx="7.5" transform="rotate(-58.7247 269.605 339.078)" fill="#F8501B" fill-opacity="0.62"/>
<rect x="269.605" y="339.078" width="15" height="45" rx="7.5" transform="rotate(-58.7247 269.605 339.078)" fill="#F8501B" fill-opacity="0.62"/>
<rect x="556.191" y="400.833" width="15" height="45" rx="7.5" transform="rotate(-58.7247 556.191 400.833)" fill="#F8501B" fill-opacity="0.62"/>
<rect x="605.346" y="223.597" width="15" height="45" rx="7.5" transform="rotate(-58.7247 605.346 223.597)" fill="#F8501B" fill-opacity="0.62"/>
<rect x="447.45" y="141.175" width="15" height="45" rx="7.5" transform="rotate(-58.72 447.45 141.175)" fill="#F8501B" fill-opacity="0.62"/>
<rect x="295.58" y="498.82" width="15" height="45" rx="7.5" transform="rotate(-58.72 295.58 498.82)" fill="#F8501B" fill-opacity="0.62"/>
<rect x="391.58" y="536.82" width="15" height="72.3853" rx="7.5" transform="rotate(-58.72 391.58 536.82)" fill="#F8501B" fill-opacity="0.62"/>
<rect x="371.905" y="143.829" width="15" height="73.872" rx="7.5" transform="rotate(-58.72 371.905 143.829)" fill="#F8501B" fill-opacity="0.62"/>
<rect x="546.278" y="205.268" width="15" height="88" rx="7.5" transform="rotate(-58.7247 546.278 205.268)" fill="#F8501B" fill-opacity="0.62"/>
<rect x="240.469" y="398.602" width="15" height="95" rx="7.5" transform="rotate(-58.7247 240.469 398.602)" fill="#F8501B" fill-opacity="0.62"/>
<rect x="426.332" y="493.537" width="14.8342" height="82.1012" rx="7.41711" transform="rotate(-58.7247 426.332 493.537)" fill="#F8501B" fill-opacity="0.62"/>
<rect x="475.176" y="491.832" width="14.8342" height="82.1012" rx="7.41711" transform="rotate(-58.7247 475.176 491.832)" fill="#F8501B" fill-opacity="0.62"/>
<rect x="459.127" y="446.983" width="14.8342" height="82.1012" rx="7.41711" transform="rotate(-58.7247 459.127 446.983)" fill="#F8501B" fill-opacity="0.62"/>
<rect x="517.825" y="359.979" width="15" height="108" rx="7.5" transform="rotate(-58.7247 517.825 359.979)" fill="#F8501B" fill-opacity="0.62"/>
<rect x="544.13" y="411.058" width="15" height="72" rx="7.5" transform="rotate(-58.7247 544.13 411.058)" fill="#F8501B" fill-opacity="0.62"/>
<rect x="474.535" y="215.511" width="15" height="68" rx="7.5" transform="rotate(-58.7247 474.535 215.511)" fill="#F8501B" fill-opacity="0.62"/>
<rect x="447.09" y="216.391" width="15" height="79" rx="7.5" transform="rotate(-58.7247 447.09 216.391)" fill="#F8501B" fill-opacity="0.62"/>
<rect x="464.943" y="244.785" width="15" height="79" rx="7.5" transform="rotate(-58.7247 464.943 244.785)" fill="#F8501B" fill-opacity="0.62"/>
</svg>
