<svg width="468" height="985" viewBox="0 0 468 985" fill="none" xmlns="http://www.w3.org/2000/svg">
<path d="M124 636L272.09 721.5L190.84 862.229C167.23 903.123 114.939 917.134 74.0452 893.524V893.524C33.1512 869.914 19.1398 817.623 42.75 776.729L124 636Z" fill="#63174C"/>
<path d="M195 721.5L343.09 636L424.34 776.729C447.951 817.623 433.939 869.914 393.045 893.524V893.524C352.151 917.134 299.86 903.123 276.25 862.229L195 721.5Z" fill="#63174C"/>
<path d="M23 237.538C23 194.894 39.1444 153.695 68.4121 122.68C223.549 -41.7205 249.953 -40.1827 399.249 123.038C427.472 153.893 443 194.445 443 236.261C443 354.734 443 574.035 443 672.214C443 699.828 420.614 722 393 722H73C45.3858 722 23 699.772 23 672.158C23 576.121 23 363.789 23 237.538Z" fill="#451336"/>
<path d="M148 676H319V899.5C319 946.72 280.72 985 233.5 985V985C186.28 985 148 946.72 148 899.5V676Z" fill="#451336"/>
<path d="M91 335.922C91 293.234 107.01 251.934 136.517 221.086C245.588 107.06 270.142 108.103 375.151 221.429C403.602 252.134 419 292.766 419 334.625C419 424.899 419 572.44 419 649.148C419 676.762 396.614 699 369 699H141C113.386 699 91 676.735 91 649.121C91 574.003 91 430.575 91 335.922Z" fill="url(#paint0_linear)"/>
<circle cx="185" cy="188" r="104" transform="rotate(-32.4507 185 188)" fill="url(#paint1_linear)"/>
<path d="M319 899C319 946.497 280.496 985 233 985C185.504 985 147 946.497 147 899C147 899 185.504 722 233 722C280.496 722 319 899 319 899Z" fill="#390A2B"/>
<circle cx="240" cy="465" r="98.5" transform="rotate(44.9385 240 465)" fill="url(#paint2_linear)" stroke="#451336" stroke-width="11"/>
<defs>
<linearGradient id="paint0_linear" x1="255" y1="136" x2="255" y2="699" gradientUnits="userSpaceOnUse">
<stop stop-color="#390A2B"/>
<stop offset="1" stop-color="#390A2B" stop-opacity="0"/>
</linearGradient>
<linearGradient id="paint1_linear" x1="185" y1="84" x2="185" y2="292" gradientUnits="userSpaceOnUse">
<stop stop-color="#5E1748"/>
<stop offset="1" stop-color="#390A2B"/>
</linearGradient>
<linearGradient id="paint2_linear" x1="240" y1="361" x2="240" y2="569" gradientUnits="userSpaceOnUse">
<stop stop-color="#350E29"/>
<stop offset="1" stop-color="#971570"/>
</linearGradient>
</defs>
</svg>
