<svg width="349" height="553" viewBox="0 0 349 553" fill="none" xmlns="http://www.w3.org/2000/svg">
<path d="M187.783 20.0685L265.546 134.075C273.923 146.356 265.128 163 250.263 163H94.7369C79.872 163 71.0774 146.356 79.4536 134.075L157.217 20.0685C164.561 9.30126 180.439 9.30125 187.783 20.0685Z" fill="#DE1414" stroke="#828282" stroke-width="3"/>
<path d="M177.864 4.67762C186.175 17.0526 200.78 38.8028 212.553 56.3538C218.302 64.9242 223.376 72.4926 226.712 77.4791C226.163 77.2897 225.586 77.107 224.984 76.9306C221.315 75.8555 216.542 74.9664 211.069 74.2547C200.112 72.83 186.17 72.0938 172.254 72.0625C158.338 72.0312 144.394 72.7045 133.434 74.1138C127.96 74.8178 123.182 75.7113 119.508 76.81C119.033 76.9521 118.573 77.0984 118.131 77.2493C121.506 72.2805 126.506 64.887 132.146 56.5352C144.03 38.9395 158.758 17.0843 167.12 4.6719C169.7 0.843227 175.292 0.846437 177.864 4.67762Z" fill="#F8F8F8" stroke="#828282" stroke-width="3"/>
<g filter="url(#filter0_d)">
<path d="M261.67 532.924C241.586 549.047 106.9 549.003 84.3295 532.924C84.3295 532.924 -4.16192 487.016 84.3295 472.921C142.27 463.693 203.73 463.693 261.67 472.921C350.162 487.016 261.67 532.924 261.67 532.924Z" fill="#FBFBFB"/>
<path d="M260.98 531.593L260.848 531.661L260.731 531.754C258.477 533.564 254.433 535.264 248.822 536.764C243.261 538.25 236.336 539.498 228.472 540.499C212.748 542.501 193.39 543.503 173.932 543.5C154.475 543.497 134.96 542.49 118.923 540.486C110.902 539.484 103.779 538.236 97.9787 536.749C92.1394 535.251 87.7881 533.546 85.1998 531.703L85.1139 531.641L85.0203 531.593L84.3731 532.84C85.0203 531.593 85.0203 531.593 85.02 531.593L85.0176 531.591L85.007 531.586L84.9621 531.562C84.9219 531.541 84.8611 531.509 84.7807 531.467C84.62 531.381 84.3811 531.254 84.0723 531.087C83.4544 530.752 82.5567 530.257 81.4437 529.621C79.217 528.35 76.1327 526.518 72.7068 524.276C65.8258 519.773 57.6812 513.691 52.2963 507.246C49.6037 504.024 47.6816 500.804 46.8949 497.729C46.1226 494.71 46.4355 491.818 48.2492 489.069C50.1004 486.264 53.6097 483.467 59.5159 480.924C65.4099 478.387 73.5734 476.153 84.5654 474.403C142.35 465.199 203.65 465.199 261.435 474.403C272.427 476.153 280.59 478.387 286.484 480.924C292.39 483.467 295.9 486.264 297.751 489.069C299.565 491.818 299.877 494.71 299.105 497.729C298.318 500.804 296.396 504.024 293.704 507.246C288.319 513.691 280.174 519.773 273.293 524.276C269.867 526.518 266.783 528.35 264.556 529.621C263.443 530.257 262.546 530.752 261.928 531.087C261.619 531.254 261.38 531.382 261.219 531.467C261.139 531.509 261.078 531.541 261.038 531.562L260.993 531.586L260.982 531.591L260.98 531.593C260.98 531.593 260.98 531.593 261.402 532.408L260.98 531.593Z" stroke="#828282" stroke-width="3"/>
</g>
<path d="M33.9919 381.941C34.0786 381.778 34.1573 381.631 34.2275 381.5H75.8321V488.5H75.7853H75.7356H75.6852H75.6341H75.5823H75.5298H75.4765H75.4225H75.3677H75.3123H75.2561H75.1993H75.1417H75.0834H75.0244H74.9647H74.9043H74.8432H74.7814H74.7189H74.6557H74.5918H74.5273H74.462H74.3961H74.3295H74.2622H74.1942H74.1256H74.0563H73.9863H73.9156H73.8443H73.7723H73.6997H73.6264H73.5525H73.4779H73.4026H73.3267H73.2502H73.173H73.0952H73.0167H72.9376H72.8579H72.7775H72.6965H72.6149H72.5327H72.4498H72.3663H72.2822H72.1975H72.1122H72.0262H71.9397H71.8525H71.7647H71.6764H71.5874H71.4979H71.4077H71.317H71.2256H71.1337H71.0412H70.9481H70.8545H70.7602H70.6654H70.57H70.474H70.3775H70.2804H70.1827H70.0845H69.9857H69.8864H69.7865H69.686H69.585H69.4835H69.3814H69.2788H69.1756H69.0719H68.9676H68.8628H68.7575H68.6517H68.5453H68.4384H68.331H68.2231H68.1146H68.0057H67.8962H67.7862H67.6757H67.5647H67.4532H67.3412H67.2287H67.1157H67.0022H66.8882H66.7737H66.6588H66.5433H66.4274H66.311H66.1941H66.0767H65.9589H65.8406H65.7218H65.6026H65.4829H65.3627H65.2421H65.121H64.9995H64.8775H64.755H64.6322H64.5088H64.3851H64.2608H64.1362H64.0111H63.8856H63.7597H63.6333H63.5065H63.3792H63.2516H63.1235H62.995H62.8661H62.7368H62.6071H62.477H62.3465H62.2155H62.0842H61.9524H61.8203H61.6878H61.5549H61.4216H61.2879H61.1538H61.0193H60.8845H60.7493H60.6137H60.4777H60.3414H60.2047H60.0676H59.9302H59.7924H59.6543H59.5158H59.3769H59.2377H59.0982H58.9582H58.818H58.6774H58.5365H58.3952H58.2536H58.1117H57.9694H57.8268H57.6839H57.5406H57.3971H57.2532H57.109H56.9645H56.8196H56.6745H56.529H56.3833H56.2372H56.0909H55.9442H55.7973H55.65H55.5025H55.3547H55.2066H55.0582H54.9095H54.7606H54.6114H54.4618H54.3121H54.162H54.0117H53.8611H53.7103H53.5592H53.4078H53.2562H53.1044H52.9522H52.7999H52.6473H52.4944H52.3413H52.188H52.0344H51.8806H51.7265H51.5723H51.4177H51.263H51.1081H50.9529H50.7975H50.6419H50.4861H50.33H50.1738H50.0173H49.8607H49.7038H49.5468H49.3895H49.2321H49.0744H48.9166H48.7586H48.6004H48.442H48.2834H48.1247H47.9657H47.8066H47.6474H47.4879H47.3283H47.1685H47.0086H46.8485H46.6883H46.5278H46.3673H46.2066H46.0457H45.8847H45.7235H45.5622H45.4008H45.2392H45.0775H44.9157H44.7537H44.5916H44.4294H44.2671H44.1046H43.942H43.7793H43.6165H43.4536H43.2906H43.1274H42.9642H42.8008H42.6374H42.4738H42.3102H42.1465H41.9827H41.8187H41.6548H41.4907H41.3265H41.1623H40.998H40.8336H40.6691H40.5046H40.34H40.1754H40.0106H39.8459H39.681H39.5161H39.3512H39.1862H39.0211H38.856H38.6909H38.5257H38.3605H38.1953H38.03H37.8647H37.6993H37.5339H37.3685H37.2031H37.0377H36.8722H36.7067H36.5413H36.3758H36.2103H36.0447H35.8792H35.7137H35.5482H35.3827H35.2172H35.0517H34.8862H34.7207H34.5552H34.3898H34.2243H34.0589H33.8935H33.7282H33.5629H33.3976H33.2323H33.0671H32.9019H32.7367H32.5716H32.4066H32.2415H32.0766H31.9117H31.7468H31.582H31.4173H31.2526H31.088H30.9234H30.7589H30.5945H30.4302H30.2659H30.1017H29.9376H29.7736H29.6097H29.4458H29.2821H29.1184H28.9548H28.7913H28.628H28.4647H28.3015H28.1384H27.9755H27.8126H27.6499H27.4872H27.3247H27.1624H27.0001H26.8379H26.6759H26.514H26.3523H26.1907H26.0292H25.8678H25.7066H25.5456H25.3847H25.2239H25.0633H24.9028H24.7425H24.5823H24.4223H24.2625H24.1028H23.9433H23.784H23.6248H23.4659H23.307H23.1484H22.99H22.8317H22.6736H22.5157H22.358H22.2005H22.0431H21.886H21.7291H21.5724H21.4158H21.2595H21.1034H20.9475H20.7918H20.6364H20.4811H20.3261H20.1713H20.0167H19.8623H19.7082H19.5543H19.4006H19.2472H19.094H18.9411H18.7884H18.6359H18.4837H18.3318H18.1801H18.0286H17.8774H17.7265H17.5758H17.4254H17.2753H17.1254H16.9758H16.8265H16.6774H16.5286H16.3801H16.2319H16.084H15.9364H15.789H15.642H15.4952H15.3488H15.2026H15.0567H14.9112H14.7659H14.621H14.4764H14.3321C9.57714 488.5 6.51639 486.928 4.57174 484.367C2.56695 481.725 1.57212 477.804 1.50378 472.792C1.36709 462.768 4.93928 449.235 9.86879 435.507C14.7814 421.826 20.9755 408.129 25.9482 397.84C28.4332 392.699 30.6103 388.415 32.1655 385.417C32.943 383.919 33.5649 382.742 33.9919 381.941Z" fill="#C4C4C4" stroke="#828282" stroke-width="3"/>
<g filter="url(#filter1_d)">
<path d="M311 380H267V490C267 490 305.397 490 330 490C371 490 311 380 311 380Z" fill="#C4C4C4"/>
<path d="M310.34 381.941C310.253 381.778 310.175 381.631 310.104 381.5H268.5V488.5H268.547H268.596H268.647H268.698H268.75H268.802H268.856H268.91H268.964H269.02H269.076H269.133H269.19H269.249H269.308H269.367H269.428H269.489H269.551H269.613H269.676H269.74H269.805H269.87H269.936H270.003H270.07H270.138H270.206H270.276H270.346H270.416H270.488H270.56H270.632H270.706H270.78H270.854H270.929H271.005H271.082H271.159H271.237H271.315H271.394H271.474H271.555H271.635H271.717H271.799H271.882H271.966H272.05H272.135H272.22H272.306H272.392H272.48H272.567H272.656H272.745H272.834H272.924H273.015H273.106H273.198H273.291H273.384H273.478H273.572H273.667H273.762H273.858H273.955H274.052H274.149H274.248H274.346H274.446H274.546H274.646H274.747H274.849H274.951H275.053H275.156H275.26H275.364H275.469H275.575H275.68H275.787H275.894H276.001H276.109H276.217H276.326H276.436H276.546H276.656H276.767H276.879H276.991H277.103H277.216H277.33H277.444H277.558H277.673H277.789H277.905H278.021H278.138H278.255H278.373H278.491H278.61H278.729H278.849H278.969H279.09H279.211H279.333H279.455H279.577H279.7H279.823H279.947H280.071H280.196H280.321H280.446H280.572H280.699H280.826H280.953H281.08H281.208H281.337H281.466H281.595H281.725H281.855H281.986H282.117H282.248H282.38H282.512H282.644H282.777H282.91H283.044H283.178H283.313H283.448H283.583H283.718H283.854H283.991H284.127H284.264H284.402H284.54H284.678H284.816H284.955H285.094H285.234H285.374H285.514H285.655H285.796H285.937H286.078H286.22H286.363H286.505H286.648H286.791H286.935H287.079H287.223H287.368H287.512H287.658H287.803H287.949H288.095H288.241H288.388H288.535H288.682H288.83H288.977H289.125H289.274H289.423H289.571H289.721H289.87H290.02H290.17H290.32H290.471H290.622H290.773H290.924H291.076H291.228H291.38H291.532H291.685H291.838H291.991H292.144H292.298H292.451H292.606H292.76H292.914H293.069H293.224H293.379H293.535H293.69H293.846H294.002H294.158H294.315H294.471H294.628H294.785H294.943H295.1H295.258H295.415H295.573H295.732H295.89H296.049H296.207H296.366H296.525H296.685H296.844H297.004H297.163H297.323H297.484H297.644H297.804H297.965H298.125H298.286H298.447H298.608H298.77H298.931H299.093H299.254H299.416H299.578H299.74H299.903H300.065H300.227H300.39H300.553H300.716H300.878H301.041H301.205H301.368H301.531H301.695H301.858H302.022H302.186H302.349H302.513H302.677H302.841H303.006H303.17H303.334H303.498H303.663H303.827H303.992H304.157H304.321H304.486H304.651H304.816H304.981H305.146H305.311H305.476H305.641H305.806H305.972H306.137H306.302H306.467H306.633H306.798H306.963H307.129H307.294H307.46H307.625H307.791H307.956H308.122H308.287H308.453H308.618H308.784H308.949H309.115H309.28H309.446H309.611H309.777H309.942H310.108H310.273H310.438H310.604H310.769H310.934H311.1H311.265H311.43H311.595H311.76H311.925H312.09H312.255H312.42H312.585H312.75H312.915H313.079H313.244H313.409H313.573H313.738H313.902H314.066H314.23H314.394H314.558H314.722H314.886H315.05H315.214H315.377H315.541H315.704H315.867H316.031H316.194H316.357H316.519H316.682H316.845H317.007H317.17H317.332H317.494H317.656H317.818H317.98H318.141H318.303H318.464H318.625H318.786H318.947H319.108H319.269H319.429H319.59H319.75H319.91H320.07H320.229H320.389H320.548H320.707H320.866H321.025H321.184H321.342H321.5H321.658H321.816H321.974H322.132H322.289H322.446H322.603H322.76H322.916H323.073H323.229H323.385H323.54H323.696H323.851H324.006H324.161H324.315H324.47H324.624H324.778H324.931H325.085H325.238H325.391H325.544H325.696H325.848H326H326.152H326.303H326.455H326.606H326.756H326.907H327.057H327.207H327.356H327.506H327.655H327.803H327.952H328.1H328.248H328.396H328.543H328.69H328.837H328.983H329.129H329.275H329.421H329.566H329.711H329.856H330C334.755 488.5 337.816 486.928 339.76 484.367C341.765 481.725 342.76 477.804 342.828 472.792C342.965 462.768 339.393 449.235 334.463 435.507C329.551 421.826 323.357 408.129 318.384 397.84C315.899 392.699 313.722 388.415 312.167 385.417C311.389 383.919 310.767 382.742 310.34 381.941Z" stroke="#828282" stroke-width="3"/>
</g>
<g filter="url(#filter2_d)">
<path d="M262 445H320L336 544H246L262 445Z" fill="#C4C4C4"/>
<path d="M247.762 542.5L263.277 446.5H318.723L334.238 542.5H247.762Z" stroke="#828282" stroke-width="3"/>
</g>
<g filter="url(#filter3_d)">
<path d="M25 445H83L99 544H9L25 445Z" fill="#C4C4C4"/>
<path d="M10.7619 542.5L26.277 446.5H81.723L97.2381 542.5H10.7619Z" stroke="#828282" stroke-width="3"/>
</g>
<g filter="url(#filter4_d)">
<path d="M24 425H82L98 524H8L24 425Z" fill="#C4C4C4"/>
<path d="M9.76189 522.5L25.277 426.5H80.723L96.2381 522.5H9.76189Z" stroke="#828282" stroke-width="3"/>
</g>
<g filter="url(#filter5_d)">
<path d="M24 403H82L98 502H8L24 403Z" fill="#C4C4C4"/>
<path d="M9.76189 500.5L25.277 404.5H80.723L96.2381 500.5H9.76189Z" stroke="#828282" stroke-width="3"/>
</g>
<g filter="url(#filter6_d)">
<path d="M262 425H320L336 524H246L262 425Z" fill="#C4C4C4"/>
<path d="M247.762 522.5L263.277 426.5H318.723L334.238 522.5H247.762Z" stroke="#828282" stroke-width="3"/>
</g>
<g filter="url(#filter7_d)">
<path d="M262 403H320L336 502H246L262 403Z" fill="#C4C4C4"/>
<path d="M247.762 500.5L263.277 404.5H318.723L334.238 500.5H247.762Z" stroke="#828282" stroke-width="3"/>
</g>
<path d="M62.8546 162.908L64.2137 163.542L64.2594 163.444L64.2906 163.341C76.4745 122.976 123.629 102.472 171.841 102.5C220.042 102.528 268.017 123.086 281.725 163.391L281.752 163.468L281.786 163.542L283.145 162.908C281.786 163.542 281.787 163.543 281.787 163.544L281.791 163.552L281.805 163.583L281.863 163.708C281.915 163.819 281.992 163.987 282.093 164.209C282.296 164.652 282.596 165.314 282.984 166.18C283.758 167.914 284.882 170.469 286.273 173.748C289.056 180.306 292.912 189.76 297.197 201.331C305.768 224.48 316.046 256.079 322.896 289.914C329.749 323.764 333.15 359.758 328.038 391.733C322.929 423.684 309.346 451.499 282.321 469.264C246.543 492.782 209.746 504.5 173 504.5C136.254 504.5 99.4569 492.782 63.6786 469.264C36.6541 451.499 23.0708 423.684 17.9621 391.733C12.8495 359.758 16.2506 323.764 23.1037 289.914C29.9536 256.079 40.2322 224.48 48.8034 201.331C53.088 189.76 56.9436 180.306 59.7269 173.748C61.1184 170.469 62.2418 167.914 63.0164 166.18C63.4038 165.314 63.7039 164.652 63.9068 164.209C64.0083 163.987 64.0854 163.819 64.137 163.708L64.195 163.583L64.2093 163.552L64.2128 163.544C64.2134 163.543 64.2137 163.542 62.8546 162.908Z" fill="#FBFBFB" stroke="#828282" stroke-width="3"/>
<g filter="url(#filter8_d)">
<path d="M62.8546 162.908C87.8036 80.2521 255.108 80.4763 283.145 162.908C283.145 162.908 393.068 398.261 283.145 470.517C211.172 517.828 134.828 517.828 62.8546 470.517C-47.0683 398.261 62.8546 162.908 62.8546 162.908Z" fill="#FBFBFB"/>
<path d="M62.8546 162.908L64.2137 163.542L64.2594 163.444L64.2906 163.341C76.4745 122.976 123.629 102.472 171.841 102.5C220.042 102.528 268.017 123.086 281.725 163.391L281.752 163.468L281.786 163.542L283.145 162.908C281.786 163.542 281.787 163.543 281.787 163.544L281.791 163.552L281.805 163.583L281.863 163.708C281.915 163.819 281.992 163.987 282.093 164.209C282.296 164.652 282.596 165.314 282.984 166.18C283.758 167.914 284.882 170.469 286.273 173.748C289.056 180.306 292.912 189.76 297.197 201.331C305.768 224.48 316.046 256.079 322.896 289.914C329.749 323.764 333.15 359.758 328.038 391.733C322.929 423.684 309.346 451.499 282.321 469.264C246.543 492.782 209.746 504.5 173 504.5C136.254 504.5 99.4569 492.782 63.6786 469.264C36.6541 451.499 23.0708 423.684 17.9621 391.733C12.8495 359.758 16.2506 323.764 23.1037 289.914C29.9536 256.079 40.2322 224.48 48.8034 201.331C53.088 189.76 56.9436 180.306 59.7269 173.748C61.1184 170.469 62.2418 167.914 63.0164 166.18C63.4038 165.314 63.7039 164.652 63.9068 164.209C64.0083 163.987 64.0854 163.819 64.137 163.708L64.195 163.583L64.2093 163.552L64.2128 163.544C64.2134 163.543 64.2137 163.542 62.8546 162.908Z" stroke="#828282" stroke-width="3"/>
</g>
<circle cx="174" cy="343" r="92" fill="#C5C5C5"/>
<circle cx="174.5" cy="178.5" r="42.5" fill="#C5C5C5"/>
<path d="M234 382.761C234 413.916 206.242 445 172 445C137.758 445 110 413.916 110 382.761C110 351.606 137.758 285 172 285C206.242 285 234 351.606 234 382.761Z" fill="#1F701E"/>
<path d="M230 381.429C230 410.247 204.256 439 172.5 439C140.744 439 115 410.247 115 381.429C115 352.61 140.744 291 172.5 291C204.256 291 230 352.61 230 381.429Z" fill="#82D080"/>
<g filter="url(#filter9_d)">
<ellipse cx="172" cy="376.5" rx="39" ry="38.5" fill="#97732F"/>
</g>
<path d="M202 377C202 398.3 183.336 415 172.025 415C150.472 415 133 398.3 133 377C133 355.7 150.472 339 172.025 339C185.881 339 202 355.7 202 377Z" fill="#B68143"/>
<path d="M162 370.179C162 373.04 162 371.674 156.5 371.674C151 371.674 151 373.04 151 370.179C151 367.319 153.462 365 156.5 365C159.538 365 162 367.319 162 370.179Z" fill="black"/>
<path d="M192 370.179C192 373.04 192 371.674 186.5 371.674C181 371.674 181 373.04 181 370.179C181 367.319 183.462 365 186.5 365C189.538 365 192 367.319 192 370.179Z" fill="black"/>
<path d="M181 379C181 383.971 176.7 388 171.522 388C166.345 388 162 383.971 162 379C162 379 166.647 380.514 171.522 380.514C176.398 380.514 181 379 181 379Z" fill="black"/>
<path d="M176.486 382C180.077 382 176.726 387 172.202 387C168.107 387 163.079 382 168.107 382C168.107 382 169.064 382.833 172.202 382.833C175.34 382.833 176.486 382 176.486 382Z" fill="#FF6161"/>
<path d="M139.908 366.128C138 365.358 138.744 361.793 141.466 357.572C143.931 353.75 146.227 351.852 148.333 353.264C150.439 354.677 147.153 357.694 145.849 359.717C144.545 361.739 141.816 366.898 139.908 366.128Z" fill="#E5E5E5"/>
<path d="M151.459 350.5C150.517 348.708 152.004 347.321 153.148 346.726C154.292 346.132 156.139 346.008 156.9 347.636C157.661 349.264 157.144 350.128 155.235 351.121C153.327 352.113 152.4 352.293 151.459 350.5Z" fill="#E5E5E5"/>
<ellipse cx="151" cy="381.5" rx="4" ry="3.5" fill="#F94545" fill-opacity="0.58"/>
<circle cx="192.5" cy="381.5" r="3.5" fill="#F94545" fill-opacity="0.58"/>
<g filter="url(#filter10_d)">
<circle cx="173.5" cy="343.5" r="96.5" stroke="#E5E5E5" stroke-width="10"/>
</g>
<g filter="url(#filter11_d)">
<circle cx="174.5" cy="179.5" r="45.5" stroke="#E5E5E5" stroke-width="10"/>
</g>
<path d="M144.455 463.517L156.247 487.776H161.249L146.804 459.241L142.36 459.253L144.455 463.517Z" fill="black"/>
<path d="M200.694 487.417C208.595 487.417 215 481.019 215 473.128C215 465.237 208.595 458.84 200.694 458.84C192.792 458.84 186.387 465.237 186.387 473.128C186.387 481.019 192.792 487.417 200.694 487.417Z" stroke="black" stroke-width="4"/>
<path d="M186.891 459.253L181.892 459.235L170.436 483.529L158.643 459.274H153.642L168.086 487.808L172.53 487.797L186.891 459.253Z" fill="black"/>
<path d="M189.503 474.051C189.512 473.681 189.541 473.311 189.59 472.944C189.885 470.133 190.799 465.555 194.574 459.249C197.442 454.458 198.877 452.062 200.719 452.001C203.025 451.926 204.726 454.732 207.593 459.463C211.032 465.136 211.892 469.949 212.158 472.595C212.23 473.313 212.266 473.671 212.255 474.051C212.122 478.531 208.017 485.203 200.88 485.203C199.386 485.203 197.906 484.914 196.526 484.354C195.146 483.794 193.891 482.972 192.835 481.937C191.779 480.901 190.94 479.672 190.369 478.319C189.797 476.966 189.503 475.516 189.503 474.051V474.051Z" fill="#399103" stroke="white" stroke-width="4"/>
<path d="M193.256 473.577C193.262 473.329 193.281 473.082 193.313 472.836C193.511 470.952 194.123 467.885 196.653 463.66C198.574 460.449 199.535 458.845 200.769 458.805C202.314 458.753 203.454 460.634 205.374 463.804C207.679 467.604 208.254 470.829 208.433 472.601C208.475 472.925 208.497 473.251 208.498 473.577C208.411 476.578 205.658 481.048 200.877 481.048C199.876 481.048 198.885 480.854 197.961 480.479C197.036 480.103 196.196 479.553 195.488 478.859C194.781 478.166 194.219 477.342 193.836 476.436C193.453 475.529 193.256 474.558 193.256 473.577Z" fill="#F8EE7B"/>
<path d="M200.878 477.535C202.932 477.535 204.598 475.902 204.598 473.889C204.598 471.875 202.932 470.242 200.878 470.242C198.824 470.242 197.158 471.875 197.158 473.889C197.158 475.902 198.824 477.535 200.878 477.535Z" fill="white"/>
<path d="M132.999 487.812L138.449 476.201L133.962 476.137L128 487.794L132.999 487.812Z" fill="#399103"/>
<path d="M132.999 487.812L138.449 476.201L133.962 476.137L128 487.794L132.999 487.812Z" fill="#399103"/>
<line y1="-2" x2="45.3645" y2="-2" transform="matrix(0.844772 -0.535126 0.516076 0.856543 139.796 184.534)" stroke="#85E3F0" stroke-opacity="0.4" stroke-width="4"/>
<line y1="-2" x2="45.3645" y2="-2" transform="matrix(0.844772 -0.535126 0.516076 0.856543 171.881 204.741)" stroke="#85E3F0" stroke-opacity="0.4" stroke-width="4"/>
<line y1="-2" x2="68.593" y2="-2" transform="matrix(0.851855 -0.523777 0.504587 0.863361 147.284 200.964)" stroke="#85E3F0" stroke-opacity="0.4" stroke-width="4"/>
<defs>
<filter id="filter0_d" x="41" y="466" width="264" height="87" filterUnits="userSpaceOnUse" color-interpolation-filters="sRGB">
<feFlood flood-opacity="0" result="BackgroundImageFix"/>
<feColorMatrix in="SourceAlpha" type="matrix" values="0 0 0 0 0 0 0 0 0 0 0 0 0 0 0 0 0 0 127 0"/>
<feOffset dy="4"/>
<feGaussianBlur stdDeviation="2"/>
<feColorMatrix type="matrix" values="0 0 0 0 0 0 0 0 0 0 0 0 0 0 0 0 0 0 0.25 0"/>
<feBlend mode="normal" in2="BackgroundImageFix" result="effect1_dropShadow"/>
<feBlend mode="normal" in="SourceGraphic" in2="effect1_dropShadow" result="shape"/>
</filter>
<filter id="filter1_d" x="263" y="380" width="85.3321" height="118" filterUnits="userSpaceOnUse" color-interpolation-filters="sRGB">
<feFlood flood-opacity="0" result="BackgroundImageFix"/>
<feColorMatrix in="SourceAlpha" type="matrix" values="0 0 0 0 0 0 0 0 0 0 0 0 0 0 0 0 0 0 127 0"/>
<feOffset dy="4"/>
<feGaussianBlur stdDeviation="2"/>
<feColorMatrix type="matrix" values="0 0 0 0 0 0 0 0 0 0 0 0 0 0 0 0 0 0 0.25 0"/>
<feBlend mode="normal" in2="BackgroundImageFix" result="effect1_dropShadow"/>
<feBlend mode="normal" in="SourceGraphic" in2="effect1_dropShadow" result="shape"/>
</filter>
<filter id="filter2_d" x="242" y="445" width="98" height="107" filterUnits="userSpaceOnUse" color-interpolation-filters="sRGB">
<feFlood flood-opacity="0" result="BackgroundImageFix"/>
<feColorMatrix in="SourceAlpha" type="matrix" values="0 0 0 0 0 0 0 0 0 0 0 0 0 0 0 0 0 0 127 0"/>
<feOffset dy="4"/>
<feGaussianBlur stdDeviation="2"/>
<feColorMatrix type="matrix" values="0 0 0 0 0 0 0 0 0 0 0 0 0 0 0 0 0 0 0.25 0"/>
<feBlend mode="normal" in2="BackgroundImageFix" result="effect1_dropShadow"/>
<feBlend mode="normal" in="SourceGraphic" in2="effect1_dropShadow" result="shape"/>
</filter>
<filter id="filter3_d" x="5" y="445" width="98" height="107" filterUnits="userSpaceOnUse" color-interpolation-filters="sRGB">
<feFlood flood-opacity="0" result="BackgroundImageFix"/>
<feColorMatrix in="SourceAlpha" type="matrix" values="0 0 0 0 0 0 0 0 0 0 0 0 0 0 0 0 0 0 127 0"/>
<feOffset dy="4"/>
<feGaussianBlur stdDeviation="2"/>
<feColorMatrix type="matrix" values="0 0 0 0 0 0 0 0 0 0 0 0 0 0 0 0 0 0 0.25 0"/>
<feBlend mode="normal" in2="BackgroundImageFix" result="effect1_dropShadow"/>
<feBlend mode="normal" in="SourceGraphic" in2="effect1_dropShadow" result="shape"/>
</filter>
<filter id="filter4_d" x="4" y="425" width="98" height="107" filterUnits="userSpaceOnUse" color-interpolation-filters="sRGB">
<feFlood flood-opacity="0" result="BackgroundImageFix"/>
<feColorMatrix in="SourceAlpha" type="matrix" values="0 0 0 0 0 0 0 0 0 0 0 0 0 0 0 0 0 0 127 0"/>
<feOffset dy="4"/>
<feGaussianBlur stdDeviation="2"/>
<feColorMatrix type="matrix" values="0 0 0 0 0 0 0 0 0 0 0 0 0 0 0 0 0 0 0.25 0"/>
<feBlend mode="normal" in2="BackgroundImageFix" result="effect1_dropShadow"/>
<feBlend mode="normal" in="SourceGraphic" in2="effect1_dropShadow" result="shape"/>
</filter>
<filter id="filter5_d" x="4" y="403" width="98" height="107" filterUnits="userSpaceOnUse" color-interpolation-filters="sRGB">
<feFlood flood-opacity="0" result="BackgroundImageFix"/>
<feColorMatrix in="SourceAlpha" type="matrix" values="0 0 0 0 0 0 0 0 0 0 0 0 0 0 0 0 0 0 127 0"/>
<feOffset dy="4"/>
<feGaussianBlur stdDeviation="2"/>
<feColorMatrix type="matrix" values="0 0 0 0 0 0 0 0 0 0 0 0 0 0 0 0 0 0 0.25 0"/>
<feBlend mode="normal" in2="BackgroundImageFix" result="effect1_dropShadow"/>
<feBlend mode="normal" in="SourceGraphic" in2="effect1_dropShadow" result="shape"/>
</filter>
<filter id="filter6_d" x="242" y="425" width="98" height="107" filterUnits="userSpaceOnUse" color-interpolation-filters="sRGB">
<feFlood flood-opacity="0" result="BackgroundImageFix"/>
<feColorMatrix in="SourceAlpha" type="matrix" values="0 0 0 0 0 0 0 0 0 0 0 0 0 0 0 0 0 0 127 0"/>
<feOffset dy="4"/>
<feGaussianBlur stdDeviation="2"/>
<feColorMatrix type="matrix" values="0 0 0 0 0 0 0 0 0 0 0 0 0 0 0 0 0 0 0.25 0"/>
<feBlend mode="normal" in2="BackgroundImageFix" result="effect1_dropShadow"/>
<feBlend mode="normal" in="SourceGraphic" in2="effect1_dropShadow" result="shape"/>
</filter>
<filter id="filter7_d" x="242" y="403" width="98" height="107" filterUnits="userSpaceOnUse" color-interpolation-filters="sRGB">
<feFlood flood-opacity="0" result="BackgroundImageFix"/>
<feColorMatrix in="SourceAlpha" type="matrix" values="0 0 0 0 0 0 0 0 0 0 0 0 0 0 0 0 0 0 127 0"/>
<feOffset dy="4"/>
<feGaussianBlur stdDeviation="2"/>
<feColorMatrix type="matrix" values="0 0 0 0 0 0 0 0 0 0 0 0 0 0 0 0 0 0 0.25 0"/>
<feBlend mode="normal" in2="BackgroundImageFix" result="effect1_dropShadow"/>
<feBlend mode="normal" in="SourceGraphic" in2="effect1_dropShadow" result="shape"/>
</filter>
<filter id="filter8_d" x="10" y="101" width="326" height="413" filterUnits="userSpaceOnUse" color-interpolation-filters="sRGB">
<feFlood flood-opacity="0" result="BackgroundImageFix"/>
<feColorMatrix in="SourceAlpha" type="matrix" values="0 0 0 0 0 0 0 0 0 0 0 0 0 0 0 0 0 0 127 0"/>
<feOffset dy="4"/>
<feGaussianBlur stdDeviation="2"/>
<feColorMatrix type="matrix" values="0 0 0 0 0 0 0 0 0 0 0 0 0 0 0 0 0 0 0.25 0"/>
<feBlend mode="normal" in2="BackgroundImageFix" result="effect1_dropShadow"/>
<feBlend mode="normal" in="SourceGraphic" in2="effect1_dropShadow" result="shape"/>
</filter>
<filter id="filter9_d" x="133" y="338" width="88" height="87" filterUnits="userSpaceOnUse" color-interpolation-filters="sRGB">
<feFlood flood-opacity="0" result="BackgroundImageFix"/>
<feColorMatrix in="SourceAlpha" type="matrix" values="0 0 0 0 0 0 0 0 0 0 0 0 0 0 0 0 0 0 127 0"/>
<feOffset dx="10" dy="10"/>
<feColorMatrix type="matrix" values="0 0 0 0 0 0 0 0 0 0 0 0 0 0 0 0 0 0 0.25 0"/>
<feBlend mode="normal" in2="BackgroundImageFix" result="effect1_dropShadow"/>
<feBlend mode="normal" in="SourceGraphic" in2="effect1_dropShadow" result="shape"/>
</filter>
<filter id="filter10_d" x="68" y="242" width="211" height="211" filterUnits="userSpaceOnUse" color-interpolation-filters="sRGB">
<feFlood flood-opacity="0" result="BackgroundImageFix"/>
<feColorMatrix in="SourceAlpha" type="matrix" values="0 0 0 0 0 0 0 0 0 0 0 0 0 0 0 0 0 0 127 0"/>
<feOffset dy="4"/>
<feGaussianBlur stdDeviation="2"/>
<feColorMatrix type="matrix" values="0 0 0 0 0 0 0 0 0 0 0 0 0 0 0 0 0 0 0.25 0"/>
<feBlend mode="normal" in2="BackgroundImageFix" result="effect1_dropShadow"/>
<feBlend mode="normal" in="SourceGraphic" in2="effect1_dropShadow" result="shape"/>
</filter>
<filter id="filter11_d" x="120" y="129" width="109" height="109" filterUnits="userSpaceOnUse" color-interpolation-filters="sRGB">
<feFlood flood-opacity="0" result="BackgroundImageFix"/>
<feColorMatrix in="SourceAlpha" type="matrix" values="0 0 0 0 0 0 0 0 0 0 0 0 0 0 0 0 0 0 127 0"/>
<feOffset dy="4"/>
<feGaussianBlur stdDeviation="2"/>
<feColorMatrix type="matrix" values="0 0 0 0 0 0 0 0 0 0 0 0 0 0 0 0 0 0 0.25 0"/>
<feBlend mode="normal" in2="BackgroundImageFix" result="effect1_dropShadow"/>
<feBlend mode="normal" in="SourceGraphic" in2="effect1_dropShadow" result="shape"/>
</filter>
</defs>
</svg>
