<?xml version="1.0" encoding="UTF-8" standalone="no"?>
<!-- Created with Inkscape (http://www.inkscape.org/) -->

<svg
   xmlns:dc="http://purl.org/dc/elements/1.1/"
   xmlns:cc="http://creativecommons.org/ns#"
   xmlns:rdf="http://www.w3.org/1999/02/22-rdf-syntax-ns#"
   xmlns:svg="http://www.w3.org/2000/svg"
   xmlns="http://www.w3.org/2000/svg"
   xmlns:sodipodi="http://sodipodi.sourceforge.net/DTD/sodipodi-0.dtd"
   xmlns:inkscape="http://www.inkscape.org/namespaces/inkscape"
   width="297mm"
   height="210mm"
   viewBox="0 0 1052.3622 744.09448"
   id="svg2"
   version="1.1"
   inkscape:version="0.91 r13725"
   sodipodi:docname="avo_mascot.svg">
  <defs
     id="defs4">
    <style
       id="style4194">
            .cls-1 {
                font-size: 57.23px;
                font-family: MicrosoftYaHeiUI, MicrosoftYaHeiUI;
            }
            
            .cls-2,
            .cls-5 {
                fill: brown;
            }
            
            .cls-2 {
                stroke: #000;
                stroke-width: 40px;
            }
            
            .cls-2,
            .cls-3 {
                stroke-miterlimit: 10;
            }
            
            .cls-3,
            .cls-6 {
                fill: #399103;
            }
            
            .cls-3 {
                stroke: #000;
                stroke-width: 6px;
            }
            
            .cls-4 {
                fill: #f8ee7b;
            }
        </style>
    <filter
       style="color-interpolation-filters:sRGB;"
       inkscape:label="Drop Shadow"
       id="filter4516">
      <feFlood
         flood-opacity="0.498039"
         flood-color="rgb(0,0,0)"
         result="flood"
         id="feFlood4518" />
      <feComposite
         in="flood"
         in2="SourceGraphic"
         operator="in"
         result="composite1"
         id="feComposite4520" />
      <feGaussianBlur
         in="composite1"
         stdDeviation="15"
         result="blur"
         id="feGaussianBlur4522" />
      <feOffset
         dx="-5.5"
         dy="-5.5"
         result="offset"
         id="feOffset4524" />
      <feComposite
         in="SourceGraphic"
         in2="offset"
         operator="over"
         result="composite2"
         id="feComposite4526" />
    </filter>
    <style
       id="style4634">
            .cls-1 {
                font-size: 57.23px;
                font-family: MicrosoftYaHeiUI, MicrosoftYaHeiUI;
            }
            
            .cls-2,
            .cls-5 {
                fill: #fff;
            }
            
            .cls-2 {
                stroke: #000;
                stroke-width: 40px;
            }
            
            .cls-2,
            .cls-3 {
                stroke-miterlimit: 10;
            }
            
            .cls-3,
            .cls-6 {
                fill: #399103;
            }
            
            .cls-3 {
                stroke: #fff;
                stroke-width: 15px;
            }
            
            .cls-4 {
                fill: #f8ee7b;
            }
        </style>
  </defs>
  <sodipodi:namedview
     id="base"
     pagecolor="#ffffff"
     bordercolor="#666666"
     borderopacity="1.0"
     inkscape:pageopacity="0.0"
     inkscape:pageshadow="2"
     inkscape:zoom="0.35"
     inkscape:cx="162.14286"
     inkscape:cy="520"
     inkscape:document-units="px"
     inkscape:current-layer="layer2"
     showgrid="false"
     inkscape:window-width="1321"
     inkscape:window-height="744"
     inkscape:window-x="45"
     inkscape:window-y="24"
     inkscape:window-maximized="1" />
  <metadata
     id="metadata7">
    <rdf:RDF>
      <cc:Work
         rdf:about="">
        <dc:format>image/svg+xml</dc:format>
        <dc:type
           rdf:resource="http://purl.org/dc/dcmitype/StillImage" />
        <dc:title />
      </cc:Work>
    </rdf:RDF>
  </metadata>
  <g
     inkscape:label="Layer 1"
     inkscape:groupmode="layer"
     id="layer1"
     transform="translate(0,-308.26772)">
    <g
       id="AVO"
       transform="matrix(0.3912878,0,0,0.3912878,28.29844,337.85316)">
      <path
         transform="translate(-506.6,1267.13)"
         d="m 699.54,-1119.8 138.27,284.8 58.65,0 -169.37,-335 -52.11,0.13 z"
         id="A"
         inkscape:connector-curvature="0" />
      <circle
         r="167.75"
         cy="264.79001"
         cx="856.98999"
         class="cls-2"
         id="O"
         style="fill:#ffffff;stroke:#000000;stroke-width:40px;stroke-miterlimit:10" />
      <path
         transform="translate(-506.6,1267.13)"
         d="m 1197.12,-1169.87 -58.61,-0.21 -134.33,285.22 -138.27,-284.76 -58.65,0 169.37,335 52.11,-0.13 z"
         id="V"
         inkscape:connector-curvature="0" />
    </g>
    <g
       id="Strip"
       transform="matrix(0.3912878,0,0,0.3912878,28.29844,337.85316)">
      <path
         id="path4647"
         transform="translate(-506.6,1267.13)"
         d="m 565.21,-834.58 63.91,-136.31 -52.61,-0.75 -69.91,136.85 z"
         class="cls-6"
         inkscape:connector-curvature="0"
         style="fill:#399103" />
      <path
         id="path4649"
         transform="translate(-506.6,1267.13)"
         d="m 565.21,-834.58 63.91,-136.31 -52.61,-0.75 -69.91,136.85 z"
         class="cls-6"
         inkscape:connector-curvature="0"
         style="fill:#399103" />
    </g>
  </g>
  <g
     inkscape:groupmode="layer"
     id="layer2"
     inkscape:label="Layer 2">
    <g
       style=""
       id="Images"
       transform="matrix(1.9961554,0,0,1.9961554,-1184.5475,194.05277)">
      <path
         transform="translate(-506.6,1267.13)"
         d="m 1232.67,-1000.76 a 125.34,125.34 0 0 1 1,-13 c 3.4,-33 13.92,-86.75 57.37,-160.78 33,-56.25 49.52,-84.38 70.72,-85.09 26.54,-0.89 46.12,32.06 79.12,87.6 39.58,66.6 49.47,123.11 52.53,154.17 0.83,8.43 1.25,12.64 1.12,17.1 -1.53,52.59 -48.78,130.92 -130.92,130.92 a 130.92,130.92 0 0 1 -130.94,-130.92 z"
         class="cls-3"
         id="Green"
         inkscape:connector-curvature="0"
         style="fill:#399103;stroke:#000000;stroke-width:6px;stroke-miterlimit:10" />
      <path
         transform="translate(-506.6,1267.13)"
         d="m 1275.87,-1006.33 a 84,84 0 0 1 0.65,-8.7 c 2.28,-22.12 9.33,-58.12 38.44,-107.73 22.12,-37.69 33.18,-56.53 47.38,-57 17.78,-0.6 30.9,21.48 53,58.69 26.52,44.62 33.14,82.48 35.2,103.29 a 90.81,90.81 0 0 1 0.75,11.45 c -1,35.23 -32.68,87.71 -87.71,87.71 a 87.71,87.71 0 0 1 -87.71,-87.71 z"
         class="cls-4"
         id="Yellow"
         inkscape:connector-curvature="0"
         style="fill:#f8ee7b" />
      <circle
         r="50.810001"
         cy="264.45999"
         cx="856.98999"
         class="cls-5"
         id="circle"
         style="fill:#a52a2a" />
    </g>
    <rect
       style="opacity:1;fill:#ffffff;fill-opacity:1;stroke:none;stroke-width:0.80000001;stroke-linecap:round;stroke-linejoin:round;stroke-miterlimit:4;stroke-dasharray:none;stroke-opacity:0.22869957"
       id="rect4230"
       width="1265.7144"
       height="185.71428"
       x="-125.71429"
       y="681.2373" />
    <ellipse
       style="opacity:1;fill:#000000;fill-opacity:1;stroke:none;stroke-width:0.80000001;stroke-linecap:round;stroke-linejoin:round;stroke-miterlimit:4;stroke-dasharray:none;stroke-opacity:0.22869957"
       id="path4234"
       cx="274.71426"
       cy="686.95166"
       rx="12.857142"
       ry="25.714285" />
    <ellipse
       style="opacity:1;fill:#000000;fill-opacity:1;stroke:none;stroke-width:0.80000001;stroke-linecap:round;stroke-linejoin:round;stroke-miterlimit:4;stroke-dasharray:none;stroke-opacity:0.22869957"
       id="path4234-3"
       cx="493.21625"
       cy="533.38208"
       rx="12.857142"
       ry="25.714285"
       transform="matrix(0.92135522,0.3887217,-0.3887217,0.92135522,0,0)" />
    <ellipse
       transform="matrix(0.8660254,-0.5,0.5,0.8660254,0,0)"
       style="opacity:1;fill:#000000;fill-opacity:1;stroke:none;stroke-width:0.80000001;stroke-linecap:round;stroke-linejoin:round;stroke-miterlimit:4;stroke-dasharray:none;stroke-opacity:0.22869957"
       id="path4234-3-6"
       cx="-76.966904"
       cy="744.16766"
       rx="12.857142"
       ry="25.714285" />
    <ellipse
       style="opacity:1;fill:#000000;fill-opacity:1;stroke:none;stroke-width:0.80000001;stroke-linecap:round;stroke-linejoin:round;stroke-miterlimit:4;stroke-dasharray:none;stroke-opacity:0.22869957"
       id="path4234-7"
       cx="777.85718"
       cy="686.95172"
       rx="12.857142"
       ry="25.714285" />
    <ellipse
       transform="matrix(0.96592583,0.25881905,-0.25881905,0.96592583,0,0)"
       style="opacity:1;fill:#000000;fill-opacity:1;stroke:none;stroke-width:0.80000001;stroke-linecap:round;stroke-linejoin:round;stroke-miterlimit:4;stroke-dasharray:none;stroke-opacity:0.22869957"
       id="path4234-3-5"
       cx="900.89502"
       cy="467.72003"
       rx="12.857142"
       ry="25.714285" />
    <ellipse
       transform="matrix(0.97350968,-0.22864579,0.22864579,0.97350968,0,0)"
       style="opacity:1;fill:#000000;fill-opacity:1;stroke:none;stroke-width:0.80000001;stroke-linecap:round;stroke-linejoin:round;stroke-miterlimit:4;stroke-dasharray:none;stroke-opacity:0.22869957"
       id="path4234-3-6-3"
       cx="630.08362"
       cy="853.63055"
       rx="12.857142"
       ry="25.714285" />
    <ellipse
       style="opacity:1;fill:#000000;fill-opacity:1;stroke:none;stroke-width:0.80000001;stroke-linecap:round;stroke-linejoin:round;stroke-miterlimit:4;stroke-dasharray:none;stroke-opacity:0.22869957"
       id="path4234-3-56"
       cx="666.66589"
       cy="-275.14285"
       rx="12.857142"
       ry="32.857143"
       transform="matrix(0,1,-1,0,0,0)" />
    <ellipse
       style="opacity:1;fill:#000000;fill-opacity:1;stroke:none;stroke-width:0.80000001;stroke-linecap:round;stroke-linejoin:round;stroke-miterlimit:4;stroke-dasharray:none;stroke-opacity:0.22869957"
       id="path4234-3-56-2"
       cx="666.66589"
       cy="-775.71436"
       rx="12.857142"
       ry="31.428572"
       transform="matrix(0,1,-1,0,0,0)" />
    <g
       id="g4656"
       transform="translate(-645.22714,-407.88118)" />
  </g>
</svg>
