<?xml version="1.0" encoding="UTF-8" standalone="no"?>
<svg
   xmlns:dc="http://purl.org/dc/elements/1.1/"
   xmlns:cc="http://creativecommons.org/ns#"
   xmlns:rdf="http://www.w3.org/1999/02/22-rdf-syntax-ns#"
   xmlns:svg="http://www.w3.org/2000/svg"
   xmlns="http://www.w3.org/2000/svg"
   xmlns:sodipodi="http://sodipodi.sourceforge.net/DTD/sodipodi-0.dtd"
   xmlns:inkscape="http://www.inkscape.org/namespaces/inkscape"
   id="Background"
   width="1000"
   height="750"
   viewBox="0 0 1000 750"
   version="1.1"
   inkscape:version="0.91 r13725"
   sodipodi:docname="avo-login__backdrop.svg">
  <metadata
     id="metadata182">
    <rdf:RDF>
      <cc:Work
         rdf:about="">
        <dc:format>image/svg+xml</dc:format>
        <dc:type
           rdf:resource="http://purl.org/dc/dcmitype/StillImage" />
        <dc:title></dc:title>
      </cc:Work>
    </rdf:RDF>
  </metadata>
  <sodipodi:namedview
     pagecolor="#ffffff"
     bordercolor="#666666"
     borderopacity="1"
     objecttolerance="10"
     gridtolerance="10"
     guidetolerance="10"
     inkscape:pageopacity="0"
     inkscape:pageshadow="2"
     inkscape:window-width="1321"
     inkscape:window-height="744"
     id="namedview180"
     showgrid="false"
     inkscape:zoom="0.33268284"
     inkscape:cx="466.48045"
     inkscape:cy="257.18436"
     inkscape:window-x="45"
     inkscape:window-y="24"
     inkscape:window-maximized="1"
     inkscape:current-layer="Background" />
  <defs
     id="defs3">
    <style
       id="style5">
      .cls-1 {
        fill: #fe981c;
        stroke: #fff;
      }

      .cls-1, .cls-10, .cls-11, .cls-12, .cls-13, .cls-14, .cls-15, .cls-16, .cls-17, .cls-19, .cls-2, .cls-23, .cls-3, .cls-31, .cls-32, .cls-4, .cls-5, .cls-6, .cls-7, .cls-8, .cls-9 {
        stroke-width: 13.64px;
      }

      .cls-2 {
        fill: #ffba66;
      }

      .cls-2, .cls-3 {
        stroke: #ffbf68;
      }

      .cls-10, .cls-11, .cls-12, .cls-13, .cls-14, .cls-15, .cls-16, .cls-17, .cls-18, .cls-2, .cls-20, .cls-21, .cls-22, .cls-23, .cls-24, .cls-25, .cls-26, .cls-27, .cls-28, .cls-29, .cls-30, .cls-31, .cls-32, .cls-34, .cls-35, .cls-36, .cls-37, .cls-38, .cls-39, .cls-40, .cls-41, .cls-42, .cls-43, .cls-44, .cls-45, .cls-46, .cls-47, .cls-48, .cls-49, .cls-5, .cls-50, .cls-51, .cls-52, .cls-53, .cls-54, .cls-55, .cls-56, .cls-7, .cls-9 {
        fill-rule: evenodd;
      }

      .cls-3 {
        fill: #fdcc90;
      }

      .cls-4 {
        fill: #fce8bb;
        stroke: #f9e0a8;
      }

      .cls-5, .cls-6 {
        fill: #fa5744;
        stroke: #fa5744;
      }

      .cls-7 {
        fill: #f98c2c;
        stroke: #f98c2c;
      }

      .cls-15, .cls-8 {
        fill: #f13e62;
        stroke: #f13e62;
      }

      .cls-9 {
        fill: #503b7c;
        stroke: #503b7c;
      }

      .cls-10, .cls-21, .cls-22 {
        fill: #6d3268;
      }

      .cls-10, .cls-21 {
        stroke: #6d3268;
      }

      .cls-11 {
        fill: #8d125e;
        stroke: #8d125e;
      }

      .cls-12 {
        fill: #a754a1;
        stroke: #a754a1;
      }

      .cls-13 {
        fill: #726bff;
        stroke: #726bff;
      }

      .cls-14 {
        fill: #ff477b;
        stroke: #ff477b;
      }

      .cls-16 {
        fill: #984392;
        stroke: #984392;
      }

      .cls-17, .cls-37, .cls-42 {
        fill: #a43a9c;
      }

      .cls-17, .cls-37, .cls-42, .cls-52 {
        stroke: #a43a9c;
      }

      .cls-18, .cls-25 {
        fill: #ff00a4;
      }

      .cls-18 {
        stroke: #d30088;
      }

      .cls-18, .cls-20, .cls-21, .cls-24, .cls-26 {
        stroke-width: 0.99px;
      }

      .cls-19 {
        fill: #640d42;
        stroke: #640d42;
      }

      .cls-20 {
        fill: #b226d3;
        stroke: #b226d3;
      }

      .cls-23 {
        fill: #451336;
        stroke: #451336;
      }

      .cls-24 {
        fill: #f97191;
        stroke: #f97191;
      }

      .cls-26 {
        fill: #9d0065;
        stroke: #9d0065;
      }

      .cls-27 {
        fill: #24ca66;
      }

      .cls-28 {
        fill: #048f32;
      }

      .cls-29 {
        fill: #e8641b;
      }

      .cls-30 {
        fill: #00a8ec;
      }

      .cls-31 {
        fill: #fd4068;
        stroke: #fd4068;
      }

      .cls-32 {
        fill: #fd5578;
        stroke: #ff5488;
      }

      .cls-33, .cls-56 {
        fill: #ff836a;
      }

      .cls-33, .cls-51, .cls-56 {
        stroke: #f8f400;
      }

      .cls-33, .cls-34, .cls-35, .cls-36, .cls-37, .cls-38, .cls-39, .cls-49, .cls-50, .cls-55, .cls-56 {
        stroke-width: 10.73px;
      }

      .cls-34, .cls-41 {
        fill: #611b4d;
        stroke: #611b4d;
      }

      .cls-35 {
        fill: #801f64;
        stroke: #801f64;
      }

      .cls-36 {
        fill: #f697db;
        stroke: #f697db;
        opacity: 0.48;
      }

      .cls-38 {
        fill: #ffe2a3;
        stroke: #ffe2a3;
      }

      .cls-39 {
        fill: #ffc64a;
        stroke: #ffc64a;
      }

      .cls-40, .cls-54 {
        fill: #ff4924;
      }

      .cls-41, .cls-42, .cls-44, .cls-45, .cls-46, .cls-47, .cls-48, .cls-51, .cls-52, .cls-53, .cls-54 {
        stroke-width: 12.46px;
      }

      .cls-43 {
        fill: #881968;
        stroke: #881968;
        stroke-width: 3px;
      }

      .cls-44 {
        fill: #fe5c81;
        stroke: #fe5c81;
      }

      .cls-45 {
        fill: #bc346e;
        stroke: #bc346e;
      }

      .cls-46 {
        fill: #94256c;
        stroke: #94256c;
      }

      .cls-47, .cls-48 {
        fill: #c70551;
        stroke: #c70551;
      }

      .cls-48 {
        opacity: 0.72;
      }

      .cls-49 {
        fill: #e10052;
        stroke: #e10052;
        opacity: 0.8;
      }

      .cls-50 {
        fill: #a3094a;
        stroke: #a3094a;
        opacity: 0.63;
      }

      .cls-51 {
        fill: #f8f400;
      }

      .cls-52, .cls-53 {
        fill: #ff765a;
      }

      .cls-53 {
        stroke: #ff765a;
      }

      .cls-54 {
        stroke: #ff4924;
      }

      .cls-55 {
        fill: #ffc0b3;
        stroke: #ffc0b3;
        opacity: 0.75;
      }
    </style>
  </defs>
  <rect
     class="cls-1"
     x="-67.658722"
     y="-100.38599"
     width="1138.4305"
     height="413.16345"
     id="rect7"
     style="fill:#fe981c;stroke:#ffffff;stroke-width:3.28987122px" />
  <path
     class="cls-2"
     d="m -50.775238,185.18641 1097.186538,0 0,162.80521 -1097.186538,0 0,-162.80521 z m 0,0 1097.186538,0 0,127.62722 -1097.186538,0 0,-127.62722 z"
     id="path9"
     inkscape:connector-curvature="0"
     style="fill:#ffba66;fill-rule:evenodd;stroke:#ffbf68;stroke-width:3.28987122px" />
  <rect
     class="cls-3"
     x="-67.658722"
     y="337.86151"
     width="1145.6663"
     height="114.32543"
     id="rect11"
     style="fill:#fdcc90;stroke:#ffbf68;stroke-width:3.28987122px" />
  <rect
     class="cls-4"
     x="-106.732"
     y="439.16254"
     width="1210.0648"
     height="210.07901"
     id="rect13"
     style="fill:#fce8bb;stroke:#f9e0a8;stroke-width:3.28987122px" />
  <path
     id="Polygon_1_copy_10"
     data-name="Polygon 1 copy 10"
     class="cls-5"
     d="m 292.68828,652.1359 c -39.18661,-0.2991 -69.01252,-2.9088 -91.32286,-8.4611 -22.25439,-5.4919 -36.99272,-13.924 -44.66724,-24.5076 -15.53764,-21.3239 -2.11019,-50.6264 36.9563,-80.57048 24.58238,-16.22987 45.1079,-31.15971 60.72272,-42.22323 15.84879,-10.99598 26.78689,-18.12806 37.63333,-17.16088 10.88745,0.3425 21.55059,8.76013 37.40661,20.25056 15.59794,11.60862 36.39118,26.29244 61.64408,41.86144 40.78814,28.34259 53.95003,57.57759 38.16878,78.71569 -7.83394,10.5257 -22.73484,18.8758 -45.07654,24.2158 -22.40441,5.4027 -52.24962,7.7929 -91.46518,7.8798 l 0,0 z"
     inkscape:connector-curvature="0"
     style="fill:#fa5744;fill-rule:evenodd;stroke:#fa5744;stroke-width:3.28987122px" />
  <rect
     class="cls-6"
     x="316.32037"
     y="504.52582"
     width="8.6829443"
     height="1.2059644"
     id="rect16"
     style="fill:#fa5744;stroke:#fa5744;stroke-width:3.28987122px" />
  <path
     id="Rounded_Rectangle_9_copy_5"
     data-name="Rounded Rectangle 9 copy 5"
     class="cls-7"
     d="m 172.64803,552.815 98.89246,-71.15428 c 6.67622,-4.80456 16.2974,-3.02938 21.49029,3.96521 5.19288,6.9946 3.9845,16.56031 -2.69171,21.36487 l -98.89247,71.1519 c -6.67766,4.8046 -16.29933,3.0294 -21.49028,-3.9652 -5.19096,-6.9946 -3.98596,-16.5579 2.69171,-21.3625 z"
     inkscape:connector-curvature="0"
     style="fill:#f98c2c;fill-rule:evenodd;stroke:#f98c2c;stroke-width:3.28987122px" />
  <path
     id="Rounded_Rectangle_11"
     data-name="Rounded Rectangle 11"
     class="cls-7"
     d="M 293.48904,485.55358 386.44479,598.2027"
     inkscape:connector-curvature="0"
     style="fill:#f98c2c;fill-rule:evenodd;stroke:#f98c2c;stroke-width:3.28987122px" />
  <path
     id="Rounded_Rectangle_9_copy_7"
     data-name="Rounded Rectangle 9 copy 7"
     class="cls-7"
     d="m 175.81586,562.7956 98.89149,-71.1519 c 6.67863,-4.80457 16.29982,-3.02939 21.49029,3.96521 5.19047,6.99459 3.98692,16.55789 -2.69171,21.36245 l -98.8915,71.15194 c -6.67767,4.8045 -16.29909,3.0294 -21.49029,-3.9652 -5.19119,-6.9946 -3.98595,-16.5579 2.69172,-21.3625 z m 5.06867,17.4672 98.8927,-71.15191 c 6.67622,-4.80457 16.2974,-3.02939 21.49029,3.96521 5.19288,6.99459 3.9845,16.55789 -2.69172,21.36245 l -98.8915,71.15195 c -6.67887,4.8045 -16.30029,3.0293 -21.49149,-3.9653 -5.19119,-6.9945 -3.98595,-16.5578 2.69172,-21.3624 z"
     inkscape:connector-curvature="0"
     style="fill:#f98c2c;fill-rule:evenodd;stroke:#f98c2c;stroke-width:3.28987122px" />
  <path
     id="Rounded_Rectangle_9_copy_8"
     data-name="Rounded Rectangle 9 copy 8"
     class="cls-7"
     d="m 196.09053,592.7397 98.8915,-71.1519 c 6.67863,-4.80457 16.29981,-3.0318 21.49029,3.9628 5.19047,6.99459 3.98691,16.5603 -2.69172,21.36486 l -98.8915,71.15194 c -6.67863,4.8045 -16.29981,3.0294 -21.49028,-3.9652 -5.19047,-6.9946 -3.98595,-16.5579 2.69171,-21.3625 z m -13.93878,-14.9733 98.89174,-71.15186 c 6.67863,-4.80456 16.29982,-3.02938 21.49029,3.96521 5.19047,6.9946 3.98692,16.55789 -2.69171,21.36246 l -98.89151,71.15429 c -6.67862,4.8046 -16.29933,3.0294 -21.49028,-3.9652 -5.19095,-6.9946 -3.98619,-16.5603 2.69147,-21.3649 z"
     inkscape:connector-curvature="0"
     style="fill:#f98c2c;fill-rule:evenodd;stroke:#f98c2c;stroke-width:3.28987122px" />
  <path
     id="Polygon_1_copy_11"
     data-name="Polygon 1 copy 11"
     class="cls-5"
     d="m 820.1241,661.3012 c -44.75576,-0.3473 -78.81702,-3.3743 -104.29663,-9.8117 -25.4145,-6.3723 -42.24735,-16.1527 -51.00989,-28.4294 -17.74456,-24.7344 -2.41193,-58.7233 42.20634,-93.45505 28.07245,-18.8227 51.51398,-36.14035 69.34538,-48.97422 18.10152,-12.75428 30.59049,-21.02479 42.97816,-19.90324 12.43349,0.39556 24.61132,10.15905 42.72008,23.48978 17.81451,13.46339 41.55995,30.49402 70.39939,48.55213 46.584,32.877 61.61515,66.7863 43.5932,91.3036 -8.95066,12.2092 -25.96441,21.8955 -51.48021,28.0869 -25.58815,6.2662 -59.67353,9.0399 -104.45582,9.1412 l 0,0 z"
     inkscape:connector-curvature="0"
     style="fill:#fa5744;fill-rule:evenodd;stroke:#fa5744;stroke-width:3.28987122px" />
  <path
     id="Rounded_Rectangle_9_copy_6"
     data-name="Rounded Rectangle 9 copy 6"
     class="cls-7"
     d="m 685.92678,546.33901 112.93858,-82.53139 c 7.6241,-5.57155 18.61285,-3.51418 24.54137,4.59955 5.92853,8.11373 4.55131,19.20619 -3.07279,24.78016 L 707.39536,575.7163 c -7.62652,5.574 -18.61527,3.5142 -24.54379,-4.5971 -5.92852,-8.1113 -4.55131,-19.2086 3.07521,-24.78019 z"
     inkscape:connector-curvature="0"
     style="fill:#f98c2c;fill-rule:evenodd;stroke:#f98c2c;stroke-width:3.28987122px" />
  <path
     id="Rounded_Rectangle_11_copy"
     data-name="Rounded Rectangle 11 copy"
     class="cls-7"
     d="M 823.93254,468.32276 930.09118,598.9866"
     inkscape:connector-curvature="0"
     style="fill:#f98c2c;fill-rule:evenodd;stroke:#f98c2c;stroke-width:3.28987122px" />
  <path
     id="Rounded_Rectangle_9_copy_9"
     data-name="Rounded Rectangle 9 copy 9"
     class="cls-7"
     d="m 689.54468,557.9163 112.93857,-82.53142 c 7.62411,-5.57155 18.61286,-3.51418 24.54138,4.59955 5.92852,8.11373 4.55131,19.20619 -3.0728,24.78016 L 711.01326,587.2936 c -7.62652,5.5739 -18.61527,3.5141 -24.54379,-4.5972 -5.92853,-8.1113 -4.55131,-19.2086 3.07521,-24.7801 z m 5.78862,20.2602 112.93858,-82.53141 c 7.62411,-5.57156 18.61286,-3.51418 24.54138,4.59955 5.92852,8.11373 4.55131,19.20619 -3.0728,24.78015 L 716.80188,607.5538 c -7.62651,5.5739 -18.61526,3.5141 -24.54378,-4.5972 -5.92853,-8.1113 -4.55131,-19.2086 3.0752,-24.7801 z"
     inkscape:connector-curvature="0"
     style="fill:#f98c2c;fill-rule:evenodd;stroke:#f98c2c;stroke-width:3.28987122px" />
  <path
     id="Rounded_Rectangle_9_copy_10"
     data-name="Rounded Rectangle 9 copy 10"
     class="cls-7"
     d="m 712.69919,592.648 112.93858,-82.53134 c 7.62411,-5.57155 18.61286,-3.51418 24.54138,4.59955 5.92852,8.11373 4.55131,19.20619 -3.0728,24.78016 L 734.16777,622.0253 c -7.62652,5.574 -18.61526,3.5142 -24.54379,-4.5971 -5.92852,-8.1113 -4.55131,-19.2086 3.07521,-24.7802 z m -15.91873,-17.3658 112.93858,-82.53143 c 7.62411,-5.57155 18.61285,-3.51418 24.54138,4.59955 5.92852,8.11373 4.55131,19.20619 -3.0728,24.78016 L 718.24904,604.6595 c -7.62652,5.5739 -18.61527,3.5141 -24.54379,-4.5972 -5.92852,-8.1113 -4.55131,-19.2086 3.07521,-24.7801 z"
     inkscape:connector-curvature="0"
     style="fill:#f98c2c;fill-rule:evenodd;stroke:#f98c2c;stroke-width:3.28987122px" />
  <rect
     class="cls-8"
     y="526.95679"
     width="1097.91"
     height="124.45554"
     id="rect27"
     x="-48.122101"
     style="fill:#f13e62;stroke:#f13e62;stroke-width:3.28987122px" />
  <path
     id="Polygon_1_copy_3"
     data-name="Polygon 1 copy 3"
     class="cls-9"
     d="m 450.61658,654.3066 c -44.75576,-0.3473 -78.81702,-3.3743 -104.29664,-9.8117 -25.4145,-6.3723 -42.24494,-16.1527 -51.00989,-28.4294 -17.74456,-24.7344 -2.41193,-58.7233 42.20635,-93.45505 28.07244,-18.82269 51.51398,-36.14034 69.34537,-48.97421 18.10153,-12.75429 30.5905,-21.02479 42.97816,-19.90324 12.4335,0.39555 24.61374,10.15904 42.72009,23.48977 17.81451,13.46339 41.55995,30.49402 70.39939,48.55213 46.58399,32.877 61.61513,66.7863 43.5932,91.3036 -8.95067,12.2092 -25.96442,21.8955 -51.48021,28.0869 -25.58816,6.2662 -59.67354,9.0399 -104.45582,9.1412 l 0,0 z M -8.5862583,634.0464 c -45.1645697,-0.7043 -77.8939697,-6.8861 -99.3666517,-18.7648 -21.31493,-11.6858 -30.25233,-28.2461 -30.85772,-45.6168 -1.28436,-34.8331 29.2726,-70.2354 62.287332,-94.75265 20.68108,-13.62499 35.0967,-23.99387 45.18025,-31.04394 10.19137,-6.98977 16.4537,-11.00081 22.5739697,-10.44607 6.17599,0.19778 12.2745501,4.98305 22.5838603,12.44314 10.07872,7.47457 24.95815,18.09188 46.05433,31.37197 34.143514,23.69479 64.591468,58.9596 62.985848,93.86505 -0.78002,17.4262 -9.98104,33.9696 -31.563474,45.407 -21.747404,11.6448 -54.678434,17.3345 -99.8779843,17.5371 l 0,0 z"
     inkscape:connector-curvature="0"
     style="fill:#503b7c;fill-rule:evenodd;stroke:#503b7c;stroke-width:3.28987122px" />
  <path
     id="Polygon_1_copy_9"
     data-name="Polygon 1 copy 9"
     class="cls-9"
     d="m 450.61658,654.3066 c -44.75576,-0.3473 -78.81702,-3.3743 -104.29664,-9.8117 -25.4145,-6.3723 -42.24494,-16.1527 -51.00989,-28.4294 -17.74456,-24.7344 -2.41193,-58.7233 42.20635,-93.45505 28.07244,-18.82269 51.51398,-36.14034 69.34537,-48.97421 18.10153,-12.75429 30.5905,-21.02479 42.97816,-19.90324 12.4335,0.39555 24.61374,10.15904 42.72009,23.48977 17.81451,13.46339 41.55995,30.49402 70.39939,48.55213 46.58399,32.877 61.61513,66.7863 43.5932,91.3036 -8.95067,12.2092 -25.96442,21.8955 -51.48021,28.0869 -25.58816,6.2662 -59.67354,9.0399 -104.45582,9.1412 l 0,0 z"
     inkscape:connector-curvature="0"
     style="fill:#503b7c;fill-rule:evenodd;stroke:#503b7c;stroke-width:3.28987122px" />
  <path
     id="Polygon_1_copy_4"
     data-name="Polygon 1 copy 4"
     class="cls-9"
     d="m 450.61658,654.3066 c -44.75576,-0.3473 -78.81702,-3.3743 -104.29664,-9.8117 -25.4145,-6.3723 -42.24494,-16.1527 -51.00989,-28.4294 -17.74456,-24.7344 -2.41193,-58.7233 42.20635,-93.45505 28.07244,-18.82269 51.51398,-36.14034 69.34537,-48.97421 18.10153,-12.75429 30.5905,-21.02479 42.97816,-19.90324 12.4335,0.39555 24.61374,10.15904 42.72009,23.48977 17.81451,13.46339 41.55995,30.49402 70.39939,48.55213 46.58399,32.877 61.61513,66.7863 43.5932,91.3036 -8.95067,12.2092 -25.96442,21.8955 -51.48021,28.0869 -25.58816,6.2662 -59.67354,9.0399 -104.45582,9.1412 l 0,0 z"
     inkscape:connector-curvature="0"
     style="fill:#503b7c;fill-rule:evenodd;stroke:#503b7c;stroke-width:3.28987122px" />
  <path
     id="Polygon_1_copy_8"
     data-name="Polygon 1 copy 8"
     class="cls-9"
     d="m 428.14463,673.1052 c -44.55557,-4.2233 -78.22609,-10.1904 -103.05208,-18.8107 -24.7681,-8.5478 -40.68924,-19.7512 -48.35676,-32.7395 -15.53524,-26.1791 2.68447,-58.7112 50.14159,-89.44878 29.59919,-16.32153 54.45171,-31.54321 73.32747,-42.7828 19.13865,-11.13829 32.29814,-18.29689 44.54109,-16.10686 12.3539,1.47128 23.63932,12.2526 40.52523,27.10043 16.58201,14.95879 38.76211,33.98167 65.93008,54.47101 43.55944,36.7867 55.59738,71.8707 35.51807,94.7357 -9.97092,11.3868 -27.76372,19.5632 -53.71849,23.5212 -26.03436,4.0279 -60.23069,3.8374 -104.8562,0.06 l 0,0 z"
     inkscape:connector-curvature="0"
     style="fill:#503b7c;fill-rule:evenodd;stroke:#503b7c;stroke-width:3.28987122px" />
  <path
     id="Polygon_1_copy_5"
     data-name="Polygon 1 copy 5"
     class="cls-10"
     d="m 34.800012,701.3392 c -44.7545503,-0.3473 -78.81654,-3.3743 -104.29592,-9.8117 -25.41449,-6.3723 -42.246132,-16.1527 -51.010842,-28.4294 -17.74456,-24.7343 -2.41,-58.7233 42.206102,-93.455 28.07292,-18.8227 51.51446,-36.14038 69.3458497,-48.97425 18.1005601,-12.75428 30.5912203,-21.02478 42.9784103,-19.90324 12.43421,0.39556 24.61228,10.15905 42.7196,23.48978 17.815714,13.46339 41.560678,30.49401 70.400118,48.55211 46.58351,32.877 61.61465,66.7863 43.592,91.3036 -8.94826,12.2092 -25.9649,21.8955 -51.47877,28.0869 -25.58647,6.2662 -59.673548,9.0399 -104.456548,9.1412 l 0,0 z"
     inkscape:connector-curvature="0"
     style="fill:#6d3268;fill-rule:evenodd;stroke:#6d3268;stroke-width:3.28987122px" />
  <path
     id="Polygon_1_copy_6"
     data-name="Polygon 1 copy 6"
     class="cls-11"
     d="m 416.60838,713.6401 c -44.75576,-0.3474 -78.81702,-3.3743 -104.29664,-9.8118 -25.4145,-6.3723 -42.24494,-16.1527 -51.00989,-28.4294 -17.74456,-24.7343 -2.41193,-58.7232 42.20635,-93.455 28.07244,-18.8227 51.51398,-36.14034 69.34537,-48.97421 18.10153,-12.75428 30.5905,-21.02479 42.97817,-19.90324 12.43349,0.39556 24.61373,10.15905 42.72008,23.48978 17.81451,13.46338 41.55995,30.49397 70.39939,48.55217 46.58399,32.877 61.61513,66.7863 43.5932,91.3035 -8.95067,12.2092 -25.96441,21.8955 -51.48021,28.0869 -25.58816,6.2662 -59.67354,9.04 -104.45582,9.1413 l 0,0 z"
     inkscape:connector-curvature="0"
     style="fill:#8d125e;fill-rule:evenodd;stroke:#8d125e;stroke-width:3.28987122px" />
  <path
     id="Polygon_1_copy_2"
     data-name="Polygon 1 copy 2"
     class="cls-10"
     d="m 1019.2964,632.8404 c -37.30051,-0.3135 -65.68891,-3.039 -86.92595,-8.8349 -21.18156,-5.7331 -35.20934,-14.5391 -42.51507,-25.5905 -14.78995,-22.267 -2.00914,-52.86469 35.17557,-84.13294 23.39812,-16.94621 42.93716,-32.53451 57.79947,-44.08765 15.08416,-11.48319 25.49648,-18.92882 35.81958,-17.91822 10.364,0.35697 20.5134,9.14604 35.6049,21.14538 14.8478,12.12236 34.6401,27.45258 58.675,43.71139 38.8248,29.59437 51.3548,60.12214 36.3333,82.19374 -7.4601,10.9887 -21.6423,19.7103 -42.9058,25.2842 -21.3263,5.6415 -49.7364,8.1403 -87.061,8.2295 l 0,0 z"
     inkscape:connector-curvature="0"
     style="fill:#6d3268;fill-rule:evenodd;stroke:#6d3268;stroke-width:3.28987122px" />
  <path
     id="Rounded_Rectangle_9_copy_3"
     data-name="Rounded Rectangle 9 copy 3"
     class="cls-12"
     d="m 871.17017,553.6665 128.45931,-96.95959 c 8.67332,-6.54598 21.42522,-4.50066 28.47772,4.57301 7.0524,9.07368 5.7428,21.7339 -2.9329,28.27987 L 896.71732,586.5193 c -8.67571,6.5484 -21.42517,4.5007 -28.48006,-4.5706 -7.05489,-9.0712 -5.74039,-21.7339 2.93291,-28.2822 z"
     inkscape:connector-curvature="0"
     style="fill:#a754a1;fill-rule:evenodd;stroke:#a754a1;stroke-width:3.28987122px" />
  <path
     id="Rounded_Rectangle_10"
     data-name="Rounded Rectangle 10"
     class="cls-13"
     d="M 249.4424,579.9613 436.28972,452.93224 c 6.56044,-4.46207 17.38036,-0.77906 24.16753,8.22467 6.78716,9.00374 6.97047,19.91771 0.41002,24.37737 L 274.01995,612.5633 c -6.56044,4.4621 -17.38036,0.7791 -24.16753,-8.2246 -6.78716,-9.0038 -6.97047,-19.9177 -0.41002,-24.3774 z"
     inkscape:connector-curvature="0"
     style="fill:#726bff;fill-rule:evenodd;stroke:#726bff;stroke-width:3.28987122px" />
  <path
     id="Rounded_Rectangle_10_copy"
     data-name="Rounded Rectangle 10 copy"
     class="cls-13"
     d="M 146.69567,536.09314 0.05544178,436.35022 C -5.0932983,432.8481 -13.719318,435.5567 -19.211528,442.40175 c -5.4922,6.84506 -5.77078,15.23375 -0.62227,18.73587 L 126.80642,560.8781 c 5.14875,3.5021 13.77477,0.7935 19.26698,-6.0515 5.4922,-6.84507 5.77102,-15.23134 0.62227,-18.73346 z"
     inkscape:connector-curvature="0"
     style="fill:#726bff;fill-rule:evenodd;stroke:#726bff;stroke-width:3.28987122px" />
  <path
     id="Rounded_Rectangle_9"
     data-name="Rounded Rectangle 9"
     class="cls-14"
     d="M 290.37042,597.2307 403.309,514.69933 c 7.62411,-5.57156 18.61286,-3.51418 24.54138,4.59955 5.92852,8.11372 4.55131,19.20619 -3.0728,24.78015 L 311.839,626.608 c -7.62652,5.574 -18.61527,3.5142 -24.54379,-4.5971 -5.92852,-8.1113 -4.55131,-19.2086 3.07521,-24.7802 z"
     inkscape:connector-curvature="0"
     style="fill:#ff477b;fill-rule:evenodd;stroke:#ff477b;stroke-width:3.28987122px" />
  <path
     id="Rounded_Rectangle_8"
     data-name="Rounded Rectangle 8"
     class="cls-15"
     d="m 210.17619,598.0146 116.17298,0.738 c 8.47551,0.053 15.29162,8.4177 15.2265,18.6804 l -0.0796,12.6385 c -0.0651,10.2628 -6.98736,18.5405 -15.46287,18.4875 l -116.17298,-0.7381 c -8.47552,-0.053 -15.29404,-8.4176 -15.22892,-18.6804 l 0.0796,-12.6385 c 0.0651,-10.2627 6.98977,-18.5405 15.46529,-18.4874 z"
     inkscape:connector-curvature="0"
     style="fill:#f13e62;fill-rule:evenodd;stroke:#f13e62;stroke-width:3.28987122px" />
  <path
     id="Rounded_Rectangle_9_copy_4"
     data-name="Rounded Rectangle 9 copy 4"
     class="cls-16"
     d="M 247.44291,640.5152 C 215.33531,617.2232 183.035,597.5563 151.07984,575.4727 118.98164,553.8256 87.229792,529.75941 52.914322,507.72885"
     inkscape:connector-curvature="0"
     style="fill:#984392;fill-rule:evenodd;stroke:#984392;stroke-width:3.28987122px" />
  <path
     id="Polygon_1_copy_7"
     data-name="Polygon 1 copy 7"
     class="cls-11"
     d="m 910.57144,704.2335 c -44.75576,-0.3473 -78.81702,-3.3743 -104.29664,-9.8117 -25.41449,-6.3723 -42.24493,-16.1527 -51.00988,-28.4294 -17.74457,-24.7343 -2.41193,-58.7232 42.20634,-93.455 28.07244,-18.8227 51.51398,-36.14036 69.34537,-48.97423 18.10153,-12.75429 30.5905,-21.02479 42.97817,-19.90324 12.43349,0.39555 24.61373,10.15904 42.72008,23.48977 17.81451,13.46339 41.5599,30.494 70.39942,48.5521 46.584,32.877 61.6151,66.7863 43.5932,91.3036 -8.9507,12.2092 -25.9644,21.8955 -51.4802,28.0869 -25.58822,6.2662 -59.67358,9.0399 -104.45586,9.1412 l 0,0 z"
     inkscape:connector-curvature="0"
     style="fill:#8d125e;fill-rule:evenodd;stroke:#8d125e;stroke-width:3.28987122px" />
  <path
     id="Rounded_Rectangle_8_copy"
     data-name="Rounded Rectangle 8 copy"
     class="cls-15"
     d="m 743.52606,589.1797 135.57212,1.0733 c 9.89132,0.077 17.84827,12.2526 17.7735,27.1945 l -0.0941,18.3934 c -0.0772,14.9419 -8.15715,26.9895 -18.04847,26.9123 l -135.57212,-1.0733 c -9.89132,-0.077 -17.84827,-12.2526 -17.7735,-27.1945 l 0.0941,-18.3958 c 0.0772,-14.9395 8.15715,-26.9871 18.04847,-26.9099 z"
     inkscape:connector-curvature="0"
     style="fill:#f13e62;fill-rule:evenodd;stroke:#f13e62;stroke-width:3.28987122px" />
  <path
     id="Polygon_1_copy"
     data-name="Polygon 1 copy"
     class="cls-10"
     d="m 618.18052,746.2011 c -55.36824,-0.4269 -97.51188,-4.1341 -129.03579,-12.0211 -31.44191,-7.8025 -52.2665,-19.785 -63.11053,-34.8234 -21.95338,-30.2986 -2.98115,-71.9334 52.21826,-114.4822 34.73178,-23.058 63.73522,-44.26854 85.79714,-59.99191 22.39235,-15.62206 37.84558,-25.75458 53.17097,-24.38219 15.3857,0.48721 30.45302,12.44555 52.85501,28.77431 22.04021,16.49519 51.41751,37.35599 87.09958,59.47819 57.63064,40.272 76.22902,81.8126 53.93074,111.8435 -11.07076,14.9564 -32.12207,26.8207 -63.6894,34.4062 -31.65657,7.6772 -73.82915,11.0756 -129.23598,11.1986 l 0,0 z"
     inkscape:connector-curvature="0"
     style="fill:#6d3268;fill-rule:evenodd;stroke:#6d3268;stroke-width:3.28987122px" />
  <path
     id="Rounded_Rectangle_9_copy"
     data-name="Rounded Rectangle 9 copy"
     class="cls-14"
     d="m 783.62679,581.447 108.62363,-75.13154 c 7.33468,-5.07229 17.56608,-2.79542 22.85062,5.08917 5.28454,7.8846 3.62272,18.38855 -3.71437,23.46083 L 802.76303,609.9971 c -7.33467,5.0747 -17.56607,2.7954 -22.85061,-5.0892 -5.28454,-7.8846 -3.62272,-18.3886 3.71437,-23.4609 z"
     inkscape:connector-curvature="0"
     style="fill:#ff477b;fill-rule:evenodd;stroke:#ff477b;stroke-width:3.28987122px" />
  <path
     id="Rounded_Rectangle_9_copy_2"
     data-name="Rounded Rectangle 9 copy 2"
     class="cls-17"
     d="M 416.09464,622.6838 593.78145,504.59334 c 11.99934,-7.97383 29.11921,-4.83591 38.24113,7.00666 9.12192,11.84257 6.79199,27.90843 -5.20735,35.88227 L 449.12842,665.5727 c -11.99694,7.9739 -29.11922,4.8384 -38.24114,-7.0042 -9.12191,-11.8426 -6.78958,-27.9109 5.20736,-35.8847 z"
     inkscape:connector-curvature="0"
     style="fill:#a43a9c;fill-rule:evenodd;stroke:#a43a9c;stroke-width:3.28987122px" />
  <path
     id="Rounded_Rectangle_18"
     data-name="Rounded Rectangle 18"
     class="cls-18"
     d="m 958.98609,594.691 58.20471,-0.4342 c 5.9309,-0.043 10.7741,4.6719 10.8199,10.5329 0.046,5.861 -4.7226,10.6487 -10.6535,10.6945 l -58.20469,0.4341 c -5.92852,0.043 -10.77409,-4.6719 -10.81991,-10.5329 -0.0458,-5.8609 4.72497,-10.6486 10.65349,-10.6944 z m -606.84134,19.5366 58.20467,-0.4342 c 5.93093,-0.043 10.77409,4.6719 10.81991,10.5329 0.0458,5.861 -4.72255,10.6487 -10.65349,10.6945 l -58.20467,0.4342 c -5.92852,0.043 -10.77409,-4.6719 -10.81991,-10.5329 -0.0458,-5.861 4.72496,-10.6487 10.65349,-10.6945 z"
     inkscape:connector-curvature="0"
     style="fill:#ff00a4;fill-rule:evenodd;stroke:#d30088;stroke-width:0.23878098px" />
  <path
     id="Rounded_Rectangle_19"
     data-name="Rounded Rectangle 19"
     class="cls-18"
     d="m 947.34612,623.8271 54.81348,-0.4101 a 5.58651,5.58651 0 1 1 0.089,11.1721 l -54.81589,0.41 a 5.58651,5.58651 0 1 1 -0.0868,-11.172 z"
     inkscape:connector-curvature="0"
     style="fill:#ff00a4;fill-rule:evenodd;stroke:#d30088;stroke-width:0.23878098px" />
  <rect
     id="Rectangle_5_copy"
     data-name="Rectangle 5 copy"
     class="cls-19"
     y="626.81061"
     width="1097.91"
     height="124.45554"
     x="-48.122101"
     style="fill:#640d42;stroke:#640d42;stroke-width:3.28987122px" />
  <g
     id="mountain_shaddow_copy_5"
     data-name="mountain shaddow copy 5"
     transform="matrix(0.2411929,0,0,0.2411929,-48.122108,-170.81431)">
    <path
       id="Rounded_Rectangle_18-2"
       data-name="Rounded Rectangle 18"
       class="cls-20"
       d="m 6.52,3188.37 332.521,-0.97 c 33.877,-0.1 61.272,-20.24 61.189,-44.98 -0.083,-24.74 -27.613,-44.71 -61.49,-44.61 l -332.521,0.97 c -33.876,0.1 -61.271,20.23 -61.188,44.97 0.083,24.74 27.613,44.72 61.489,44.62 z"
       inkscape:connector-curvature="0"
       style="fill:#b226d3;fill-rule:evenodd;stroke:#b226d3;stroke-width:0.99000001px" />
    <path
       id="Rounded_Rectangle_19-2"
       data-name="Rounded Rectangle 19"
       class="cls-20"
       d="m -34.687,3071.97 313.151,-0.92 c 17.83,-0.05 32.248,-10.64 32.2,-23.67 -0.048,-13.03 -14.533,-23.53 -32.363,-23.48 l -313.15,0.92 c -17.83,0.05 -32.248,10.65 -32.2,23.67 0.048,13.02 14.532,23.53 32.362,23.48 z"
       inkscape:connector-curvature="0"
       style="fill:#b226d3;fill-rule:evenodd;stroke:#b226d3;stroke-width:0.99000001px" />
    <path
       id="Rounded_Rectangle_20"
       data-name="Rounded Rectangle 20"
       class="cls-20"
       d="m 135.378,3105.47 83.937,-0.24 c 16.047,-0.05 29.023,-9.59 28.984,-21.3 -0.039,-11.71 -13.08,-21.19 -29.127,-21.14 l -83.937,0.25 c -16.047,0.04 -29.023,9.58 -28.984,21.3 0.039,11.72 13.08,21.18 29.127,21.13 z"
       inkscape:connector-curvature="0"
       style="fill:#b226d3;fill-rule:evenodd;stroke:#b226d3;stroke-width:0.99000001px" />
    <path
       id="Rounded_Rectangle_21"
       data-name="Rounded Rectangle 21"
       class="cls-21"
       d="m -110,3099.12 219.529,-0.64 c 14.264,-0.05 25.8,-8.52 25.763,-18.94 -0.037,-10.42 -11.626,-18.83 -25.89,-18.79 l -219.528,0.65 c -14.264,0.04 -25.8,8.52 -25.764,18.93 0.036,10.41 11.625,18.83 25.89,18.79 z"
       inkscape:connector-curvature="0"
       style="fill:#6d3268;fill-rule:evenodd;stroke:#6d3268;stroke-width:0.99000001px" />
    <path
       id="Rounded_Rectangle_22"
       data-name="Rounded Rectangle 22"
       class="cls-22"
       d="m 228.984,3100.48 122.678,-0.35 c 12.481,-0.04 22.568,-9.04 22.531,-20.11 -0.037,-11.07 -10.185,-20.01 -22.666,-19.97 l -122.678,0.36 c -12.48,0.03 -22.568,9.03 -22.531,20.1 0.037,11.07 10.182,20.01 22.666,19.97 z"
       inkscape:connector-curvature="0"
       style="fill:#6d3268;fill-rule:evenodd" />
  </g>
  <path
     id="Rounded_Rectangle_7"
     data-name="Rounded Rectangle 7"
     class="cls-23"
     d="m -60.051268,567.2336 c 86.06341,23.8973 189.869228,58.371 324.715348,86.3615 14.19179,2.7833 -18.97947,36.835 -36.69026,64.2152 -9.42823,13.9192 -15.69684,24.4594 -22.02574,31.4636 -6.15283,6.9463 -12.36837,10.3544 -17.60708,8.7071 -103.734658,-32.7106 -208.867988,-65.4019 -338.41245,-97.7676 -6.68249,-1.4857 -6.71626,-9.023 -2.14396,-18.1859 4.59352,-9.286 13.7931,-20.1999 26.06861,-31.2249 12.27672,-11.0032 26.342842,-21.7363 38.778742,-30.2938 12.3732,-8.4104 23.1181,-14.6452 27.31679,-13.2752 l 0,0 z"
     inkscape:connector-curvature="0"
     style="fill:#451336;fill-rule:evenodd;stroke:#451336;stroke-width:3.28987122px" />
  <path
     id="Rounded_Rectangle_12"
     data-name="Rounded Rectangle 12"
     class="cls-24"
     d="m 784.91958,531.05703 44.93907,0 c 1.71005,0 3.09691,1.88854 3.09691,4.22087 0,2.33234 -1.38686,4.22088 -3.09691,4.22088 l -44.93907,0 c -1.71005,0 -3.09691,-1.89095 -3.09691,-4.22088 0,-2.32992 1.38686,-4.22087 3.09691,-4.22087 z m -561.49707,18.81305 44.93906,0 c 1.71006,0 3.09691,1.88852 3.09691,4.22092 0,2.3323 -1.38685,4.2208 -3.09691,4.2208 l -44.93906,0 c -1.71006,0 -3.09692,-1.8909 -3.09692,-4.2208 0,-2.33 1.38686,-4.22092 3.09692,-4.22092 z"
     inkscape:connector-curvature="0"
     style="fill:#f97191;fill-rule:evenodd;stroke:#f97191;stroke-width:0.23878098px" />
  <path
     id="Rounded_Rectangle_12_copy"
     data-name="Rounded Rectangle 12 copy"
     class="cls-24"
     d="m 692.13267,528.6451 32.01113,0 c 1.21802,0 2.2045,1.89095 2.2045,4.22088 0,2.32992 -0.98648,4.22087 -2.2045,4.22087 l -32.01113,0 c -1.21802,0 -2.2045,-1.89095 -2.2045,-4.22087 0,-2.32993 0.98648,-4.22088 2.2045,-4.22088 z m -535.03821,26.0488 23.95408,0 c 0.91146,0 1.65048,1.8886 1.65048,4.2209 0,2.3323 -0.73902,4.2209 -1.65048,4.2209 l -23.95359,0 c -0.91147,0 -1.65025,-1.891 -1.65025,-4.2209 0,-2.3299 0.73878,-4.2209 1.65025,-4.2209 z m 88.51779,-22.6721 23.95528,0 c 0.91171,0 1.64976,1.88854 1.64976,4.22088 0,2.33233 -0.73805,4.22087 -1.64976,4.22087 l -23.95528,0 c -0.91171,0 -1.64976,-1.89095 -1.64976,-4.22087 0,-2.32993 0.73805,-4.22088 1.64976,-4.22088 z m 52.51493,69.9459 26.5071,0 c 1.00819,0 1.82583,1.8886 1.82583,4.2209 0,2.3324 -0.81764,4.2209 -1.82583,4.2209 l -26.5071,0 c -1.00818,0 -1.82583,-1.891 -1.82583,-4.2209 0,-2.3299 0.81765,-4.2209 1.82583,-4.2209 z m 440.30247,-55.95671 19.83571,0 c 0.75493,0 1.36756,1.88854 1.36756,4.22087 0,2.33234 -0.61263,4.22084 -1.36756,4.22084 l -19.83571,0 c -0.75493,0 -1.36515,-1.8909 -1.36515,-4.22084 0,-2.32992 0.61022,-4.22087 1.36515,-4.22087 z m -31.75546,-0.48239 19.83571,0 c 0.75493,0 1.36756,1.88854 1.36756,4.22088 0,2.33232 -0.61263,4.22092 -1.36756,4.22092 l -19.83571,0 c -0.75493,0 -1.36756,-1.891 -1.36756,-4.22092 0,-2.32992 0.61263,-4.22088 1.36756,-4.22088 z"
     inkscape:connector-curvature="0"
     style="fill:#f97191;fill-rule:evenodd;stroke:#f97191;stroke-width:0.23878098px" />
  <path
     id="Rounded_Rectangle_14"
     data-name="Rounded Rectangle 14"
     class="cls-24"
     d="m 167.50435,532.0218 0.48238,0 a 5.306245,5.306245 0 0 1 0,10.61249 l -0.48238,0 a 5.306245,5.306245 0 1 1 0,-10.61249 z m 34.73177,19.2954 0.48239,0 a 5.30625,5.30625 0 0 1 0,10.6125 l -0.48239,0 a 5.30625,5.30625 0 1 1 0,-10.6125 z m 676.78729,42.45 0.48238,0 a 5.30625,5.30625 0 0 1 0,10.6125 l -0.48238,0 a 5.30625,5.30625 0 1 1 0,-10.6125 z"
     inkscape:connector-curvature="0"
     style="fill:#f97191;fill-rule:evenodd;stroke:#f97191;stroke-width:0.23878098px" />
  <path
     id="Rounded_Rectangle_13"
     data-name="Rounded Rectangle 13"
     class="cls-24"
     d="m 322.47078,615.2334 5.78863,0 a 4.2208758,4.2208758 0 0 1 0,8.4417 l -5.78863,0 a 4.2208758,4.2208758 0 1 1 0,-8.4417 z m -32.80223,-83.45279 5.78863,0 a 4.2208758,4.2208758 0 0 1 0,8.44175 l -5.78863,0 a 4.2208758,4.2208758 0 1 1 0,-8.44175 z m 0,0 5.78863,0 a 4.2208758,4.2208758 0 0 1 0,8.44175 l -5.78863,0 a 4.2208758,4.2208758 0 1 1 0,-8.44175 z"
     inkscape:connector-curvature="0"
     style="fill:#f97191;fill-rule:evenodd;stroke:#f97191;stroke-width:0.23878098px" />
  <path
     id="Rounded_Rectangle_13_copy"
     data-name="Rounded Rectangle 13 copy"
     class="cls-24"
     d="m 742.18985,560.0002 3.53106,0 c 1.42304,0 2.57594,1.8885 2.57594,4.2209 0,2.3323 -1.1529,4.2208 -2.57594,4.2208 l -3.53106,0 c -1.42304,0 -2.57594,-1.8909 -2.57594,-4.2208 0,-2.33 1.1529,-4.2209 2.57594,-4.2209 z m 67.05163,-15.43637 3.53106,0 c 1.42304,0 2.57594,1.88854 2.57594,4.22088 0,2.33229 -1.1529,4.22089 -2.57594,4.22089 l -3.53106,0 c -1.42304,0 -2.57594,-1.891 -2.57594,-4.22089 0,-2.32993 1.1529,-4.22088 2.57594,-4.22088 z m -48.23858,-13.98919 3.53106,0 c 1.42304,0 2.57594,1.88854 2.57594,4.22088 0,2.33233 -1.1529,4.22087 -2.57594,4.22087 l -3.53106,0 c -1.42304,0 -2.57594,-1.89095 -2.57594,-4.22087 0,-2.32992 1.1529,-4.22088 2.57594,-4.22088 z"
     inkscape:connector-curvature="0"
     style="fill:#f97191;fill-rule:evenodd;stroke:#f97191;stroke-width:0.23878098px" />
  <path
     id="Rounded_Rectangle_15"
     data-name="Rounded Rectangle 15"
     class="cls-24"
     d="m 835.1263,597.6263 20.74259,0 a 4.823858,4.823858 0 0 1 0,9.6477 l -20.74259,0 a 4.823858,4.823858 0 1 1 0,-9.6477 z m -649.29129,-24.6017 20.74258,0 a 4.823858,4.823858 0 0 1 0,9.6477 l -20.74258,0 a 4.823858,4.823858 0 1 1 0,-9.6477 z m 585.13398,-17.3659 20.74259,0 a 4.823858,4.823858 0 0 1 0,9.6477 l -20.74259,0 a 4.823858,4.823858 0 1 1 0,-9.6477 z"
     inkscape:connector-curvature="0"
     style="fill:#f97191;fill-rule:evenodd;stroke:#f97191;stroke-width:0.23878098px" />
  <path
     id="Rounded_Rectangle_16"
     data-name="Rounded Rectangle 16"
     class="cls-24"
     d="m 249.50993,613.545 41.00279,0 a 4.823858,4.823858 0 0 1 0,9.6477 l -41.00279,0 a 4.823858,4.823858 0 1 1 0,-9.6477 z"
     inkscape:connector-curvature="0"
     style="fill:#f97191;fill-rule:evenodd;stroke:#f97191;stroke-width:0.23878098px" />
  <path
     id="Rounded_Rectangle_17"
     data-name="Rounded Rectangle 17"
     class="cls-24"
     d="m 201.75374,532.98657 15.91873,0 a 5.306245,5.306245 0 0 1 0,10.61249 l -15.91873,0 a 5.306245,5.306245 0 1 1 0,-10.61249 z"
     inkscape:connector-curvature="0"
     style="fill:#f97191;fill-rule:evenodd;stroke:#f97191;stroke-width:0.23878098px" />
  <g
     id="mountain_shaddow"
     data-name="mountain shaddow"
     transform="matrix(0.2411929,0,0,0.2411929,-48.122108,-170.81431)">
    <path
       id="Rounded_Rectangle_18-3"
       data-name="Rounded Rectangle 18"
       class="cls-18"
       d="m 1942,3026 206,0 a 38,38 0 0 1 0,76 l -206,0 a 38,38 0 0 1 0,-76 z"
       inkscape:connector-curvature="0"
       style="fill:#ff00a4;fill-rule:evenodd;stroke:#d30088;stroke-width:0.99000001px" />
    <path
       id="Rounded_Rectangle_19-3"
       data-name="Rounded Rectangle 19"
       class="cls-18"
       d="m 1900,3130 194,0 a 20,20 0 0 1 0,40 l -194,0 a 20,20 0 0 1 0,-40 z"
       inkscape:connector-curvature="0"
       style="fill:#ff00a4;fill-rule:evenodd;stroke:#d30088;stroke-width:0.99000001px" />
    <path
       id="Rounded_Rectangle_20-2"
       data-name="Rounded Rectangle 20"
       class="cls-25"
       d="m 2022,3096 52,0 a 18,18 0 0 1 0,36 l -52,0 a 18,18 0 0 1 0,-36 z"
       inkscape:connector-curvature="0"
       style="fill:#ff00a4;fill-rule:evenodd" />
    <path
       id="Rounded_Rectangle_21-2"
       data-name="Rounded Rectangle 21"
       class="cls-26"
       d="m 1870,3102 136,0 a 16,16 0 0 1 0,32 l -136,0 a 16,16 0 0 1 0,-32 z"
       inkscape:connector-curvature="0"
       style="fill:#9d0065;fill-rule:evenodd;stroke:#9d0065;stroke-width:0.99000001px" />
    <path
       id="Rounded_Rectangle_22-2"
       data-name="Rounded Rectangle 22"
       class="cls-26"
       d="m 2080,3100 76,0 c 7.73,0 14,7.61 14,17 0,9.39 -6.27,17 -14,17 l -76,0 c -7.73,0 -14,-7.61 -14,-17 0,-9.39 6.27,-17 14,-17 z"
       inkscape:connector-curvature="0"
       style="fill:#9d0065;fill-rule:evenodd;stroke:#9d0065;stroke-width:0.99000001px" />
  </g>
  <g
     id="mountain_shaddow_copy"
     data-name="mountain shaddow copy"
     transform="matrix(0.2411929,0,0,0.2411929,-48.122108,-170.81431)">
    <path
       id="Rounded_Rectangle_18-4"
       data-name="Rounded Rectangle 18"
       class="cls-18"
       d="m 3839.56,3038.81 167.52,0.21 c 17.07,0.02 30.89,12.06 30.87,26.89 -0.02,14.83 -13.87,26.83 -30.93,26.81 l -167.53,-0.21 c -17.06,-0.02 -30.88,-12.06 -30.86,-26.89 0.02,-14.83 13.87,-26.83 30.93,-26.81 z"
       inkscape:connector-curvature="0"
       style="fill:#ff00a4;fill-rule:evenodd;stroke:#d30088;stroke-width:0.99000001px" />
    <path
       id="Rounded_Rectangle_19-4"
       data-name="Rounded Rectangle 19"
       class="cls-18"
       d="m 3805.32,3112.26 157.76,0.19 c 8.98,0.01 16.25,6.35 16.24,14.16 -0.01,7.81 -7.29,14.12 -16.28,14.11 l -157.76,-0.2 c -8.98,-0.01 -16.26,-6.35 -16.25,-14.15 0.01,-7.8 7.3,-14.13 16.29,-14.11 z"
       inkscape:connector-curvature="0"
       style="fill:#ff00a4;fill-rule:evenodd;stroke:#d30088;stroke-width:0.99000001px" />
    <path
       id="Rounded_Rectangle_20-3"
       data-name="Rounded Rectangle 20"
       class="cls-25"
       d="m 3904.56,3088.35 42.28,0.06 c 8.09,0.01 14.63,5.71 14.63,12.74 0,7.03 -6.57,12.71 -14.66,12.7 l -42.28,-0.06 c -8.09,-0.01 -14.64,-5.71 -14.63,-12.73 0.01,-7.02 6.57,-12.72 14.66,-12.71 z"
       inkscape:connector-curvature="0"
       style="fill:#ff00a4;fill-rule:evenodd" />
    <path
       id="Rounded_Rectangle_21-3"
       data-name="Rounded Rectangle 21"
       class="cls-26"
       d="m 3780.94,3092.44 110.6,0.14 c 7.19,0.01 13.01,5.08 13,11.32 -0.01,6.24 -5.84,11.3 -13.03,11.29 l -110.59,-0.14 c -7.19,-0.01 -13.01,-5.08 -13,-11.32 0.01,-6.24 5.84,-11.3 13.02,-11.29 z"
       inkscape:connector-curvature="0"
       style="fill:#9d0065;fill-rule:evenodd;stroke:#9d0065;stroke-width:0.99000001px" />
    <path
       id="Rounded_Rectangle_22-3"
       data-name="Rounded Rectangle 22"
       class="cls-26"
       d="m 3951.72,3091.24 61.8,0.08 c 6.29,0.01 11.38,5.39 11.37,12.02 -0.01,6.63 -5.11,12.01 -11.4,12 l -61.8,-0.07 c -6.29,-0.01 -11.38,-5.4 -11.37,-12.03 0.01,-6.63 5.11,-12.01 11.4,-12 z"
       inkscape:connector-curvature="0"
       style="fill:#9d0065;fill-rule:evenodd;stroke:#9d0065;stroke-width:0.99000001px" />
  </g>
  <g
     id="mountain_shaddow_copy_3"
     data-name="mountain shaddow copy 3"
     transform="matrix(0.2411929,0,0,0.2411929,-48.122108,-170.81431)">
    <path
       id="Rounded_Rectangle_18-5"
       data-name="Rounded Rectangle 18"
       class="cls-20"
       d="m 3065.77,3107.99 -332.53,0.35 c -33.87,0.04 -61.31,20.12 -61.27,44.86 0.04,24.74 27.53,44.77 61.41,44.73 l 332.52,-0.35 c 33.88,-0.03 61.31,-20.12 61.27,-44.86 -0.04,-24.74 -27.53,-44.76 -61.4,-44.73 z"
       inkscape:connector-curvature="0"
       style="fill:#b226d3;fill-rule:evenodd;stroke:#b226d3;stroke-width:0.99000001px" />
    <path
       id="Rounded_Rectangle_19-5"
       data-name="Rounded Rectangle 19"
       class="cls-20"
       d="m 3133.74,3230.52 -313.15,0.33 c -17.83,0.02 -32.27,10.59 -32.25,23.61 0.02,13.02 14.49,23.56 32.32,23.54 l 313.15,-0.33 c 17.83,-0.02 32.27,-10.59 32.25,-23.61 -0.02,-13.02 -14.49,-23.56 -32.32,-23.54 z"
       inkscape:connector-curvature="0"
       style="fill:#b226d3;fill-rule:evenodd;stroke:#b226d3;stroke-width:0.99000001px" />
    <path
       id="Rounded_Rectangle_20-4"
       data-name="Rounded Rectangle 20"
       class="cls-20"
       d="m 2936.75,3190.65 -83.93,0.08 c -16.05,0.02 -29.05,9.53 -29.03,21.25 0.02,11.72 13.04,21.21 29.09,21.19 l 83.94,-0.09 c 16.04,-0.01 29.04,-9.53 29.02,-21.25 -0.02,-11.72 -13.04,-21.2 -29.09,-21.18 z"
       inkscape:connector-curvature="0"
       style="fill:#b226d3;fill-rule:evenodd;stroke:#b226d3;stroke-width:0.99000001px" />
    <path
       id="Rounded_Rectangle_21-4"
       data-name="Rounded Rectangle 21"
       class="cls-21"
       d="m 3183.12,3196.46 -219.53,0.23 c -14.26,0.02 -25.81,8.47 -25.8,18.89 0.01,10.42 11.59,18.85 25.86,18.83 l 219.53,-0.23 c 14.26,-0.01 25.81,-8.47 25.8,-18.89 -0.01,-10.42 -11.6,-18.85 -25.86,-18.83 z"
       inkscape:connector-curvature="0"
       style="fill:#6d3268;fill-rule:evenodd;stroke:#6d3268;stroke-width:0.99000001px" />
    <path
       id="Rounded_Rectangle_22-4"
       data-name="Rounded Rectangle 22"
       class="cls-22"
       d="m 2843.14,3195.46 -122.68,0.13 c -12.48,0.01 -22.59,8.99 -22.57,20.06 0.02,11.07 10.15,20.03 22.63,20.02 l 122.68,-0.13 c 12.48,-0.01 22.58,-9 22.57,-20.06 -0.01,-11.06 -10.15,-20.03 -22.63,-20.02 z"
       inkscape:connector-curvature="0"
       style="fill:#6d3268;fill-rule:evenodd" />
  </g>
  <g
     id="mountain_shaddow_copy_4"
     data-name="mountain shaddow copy 4"
     transform="matrix(0.2411929,0,0,0.2411929,-48.122108,-170.81431)">
    <path
       id="Rounded_Rectangle_18-6"
       data-name="Rounded Rectangle 18"
       class="cls-20"
       d="m 4764.8,2882.99 -332.53,0.35 c -33.87,0.04 -61.3,20.12 -61.27,44.86 0.03,24.74 27.53,44.77 61.41,44.73 l 332.52,-0.35 c 33.88,-0.03 61.31,-20.12 61.27,-44.86 -0.04,-24.74 -27.53,-44.76 -61.4,-44.73 z"
       inkscape:connector-curvature="0"
       style="fill:#b226d3;fill-rule:evenodd;stroke:#b226d3;stroke-width:0.99000001px" />
    <path
       id="Rounded_Rectangle_19-6"
       data-name="Rounded Rectangle 19"
       class="cls-20"
       d="m 4832.78,3005.52 -313.16,0.33 c -17.83,0.02 -32.26,10.59 -32.25,23.61 0.01,13.02 14.49,23.56 32.32,23.54 l 313.16,-0.33 c 17.83,-0.02 32.26,-10.59 32.24,-23.61 -0.02,-13.02 -14.48,-23.56 -32.31,-23.54 z"
       inkscape:connector-curvature="0"
       style="fill:#b226d3;fill-rule:evenodd;stroke:#b226d3;stroke-width:0.99000001px" />
    <path
       id="Rounded_Rectangle_20-5"
       data-name="Rounded Rectangle 20"
       class="cls-20"
       d="m 4635.79,2965.65 -83.94,0.08 c -16.05,0.02 -29.04,9.53 -29.03,21.25 0.01,11.72 13.04,21.21 29.09,21.19 l 83.94,-0.09 c 16.04,-0.01 29.04,-9.53 29.02,-21.25 -0.02,-11.72 -13.04,-21.2 -29.08,-21.18 z"
       inkscape:connector-curvature="0"
       style="fill:#b226d3;fill-rule:evenodd;stroke:#b226d3;stroke-width:0.99000001px" />
    <path
       id="Rounded_Rectangle_21-5"
       data-name="Rounded Rectangle 21"
       class="cls-21"
       d="m 4881.15,2972.46 -219.53,0.23 c -14.26,0.02 -25.81,8.47 -25.8,18.89 0.01,10.42 11.59,18.85 25.86,18.83 l 219.53,-0.23 c 14.26,-0.01 25.81,-8.47 25.8,-18.89 -0.01,-10.42 -11.59,-18.85 -25.86,-18.83 z"
       inkscape:connector-curvature="0"
       style="fill:#6d3268;fill-rule:evenodd;stroke:#6d3268;stroke-width:0.99000001px" />
    <path
       id="Rounded_Rectangle_22-5"
       data-name="Rounded Rectangle 22"
       class="cls-22"
       d="m 4542.17,2970.46 -122.68,0.13 c -12.48,0.01 -22.58,8.99 -22.57,20.06 0.01,11.07 10.15,20.03 22.63,20.02 l 122.68,-0.13 c 12.48,-0.01 22.58,-9 22.57,-20.06 -0.01,-11.06 -10.15,-20.03 -22.63,-20.02 z"
       inkscape:connector-curvature="0"
       style="fill:#6d3268;fill-rule:evenodd" />
  </g>
  <g
     id="mountain_shaddow_copy_2"
     data-name="mountain shaddow copy 2"
     transform="matrix(0.2411929,0,0,0.2411929,-48.122108,-170.81431)">
    <path
       id="Rounded_Rectangle_20-6"
       data-name="Rounded Rectangle 20"
       class="cls-25"
       d="m 4269.88,3254.19 60.92,-0.45 a 20.842,20.842 0 1 1 0.32,41.68 l -60.91,0.46 a 20.847,20.847 0 1 1 -0.33,-41.69 z"
       inkscape:connector-curvature="0"
       style="fill:#ff00a4;fill-rule:evenodd" />
    <path
       id="Rounded_Rectangle_21-6"
       data-name="Rounded Rectangle 21"
       class="cls-26"
       d="m 4091.88,3262.47 159.31,-1.19 a 18.527,18.527 0 1 1 0.29,37.05 l -159.32,1.19 a 18.527,18.527 0 1 1 -0.28,-37.05 z"
       inkscape:connector-curvature="0"
       style="fill:#9d0065;fill-rule:evenodd;stroke:#9d0065;stroke-width:0.99000001px" />
    <path
       id="Rounded_Rectangle_22-6"
       data-name="Rounded Rectangle 22"
       class="cls-26"
       d="m 4337.86,3258.31 89.03,-0.66 c 9.06,-0.07 16.47,8.69 16.56,19.56 0.09,10.87 -7.19,19.74 -16.25,19.81 l -89.03,0.67 c -9.06,0.06 -16.47,-8.7 -16.55,-19.57 -0.08,-10.87 7.19,-19.74 16.24,-19.81 z"
       inkscape:connector-curvature="0"
       style="fill:#9d0065;fill-rule:evenodd;stroke:#9d0065;stroke-width:0.99000001px" />
  </g>
  <path
     class="cls-27"
     d="m 229.28108,294.92918 c 36.63238,0 70.15578,65.09555 70.15578,96.85583 0,31.76028 -29.69567,57.50763 -66.32805,57.50763 -36.63237,0 -66.32804,-25.74735 -66.32804,-57.50763 0,-31.76028 25.86939,-96.85583 62.50031,-96.85583 z m 3.82773,46.53576 c 19.02048,0 35.71585,43.94776 35.71585,61.29194 0,17.34418 -15.41946,31.4009 -34.43994,31.4009 -19.02047,0 -34.43993,-14.05913 -34.43993,-31.4009 0,-17.34177 14.14355,-61.29194 33.16402,-61.29194 z"
     id="path93"
     inkscape:connector-curvature="0"
     style="fill:#24ca66;fill-rule:evenodd" />
  <path
     id="Ellipse_3_copy"
     data-name="Ellipse 3 copy"
     class="cls-28"
     d="m 230.96943,316.87773 c 29.70532,0 56.89017,52.78748 56.89017,78.54447 0,25.75699 -24.0807,46.63465 -53.78601,46.63465 -29.70532,0 -53.78602,-20.88007 -53.78602,-46.63465 0,-25.75458 20.97896,-78.54447 50.68186,-78.54447 z m 3.10416,37.73704 c 15.42428,0 28.96244,35.64108 28.96244,49.70504 0,14.06396 -12.50344,25.46514 -27.92773,25.46514 -15.42428,0 -27.92772,-11.40118 -27.92772,-25.46514 0,-14.06396 11.46872,-49.70504 26.89301,-49.70504 z"
     inkscape:connector-curvature="0"
     style="fill:#048f32;fill-rule:evenodd" />
  <path
     class="cls-29"
     d="m 235.43391,379.76155 c 13.27044,0 24.03005,10.32788 24.03005,23.06769 0,12.7398 -10.75961,23.06768 -24.03005,23.06768 -13.27043,0 -24.03246,-10.32788 -24.03246,-23.06768 0,-12.73981 10.75962,-23.06769 24.03246,-23.06769 z"
     id="path96"
     inkscape:connector-curvature="0"
     style="fill:#e8641b;fill-rule:evenodd" />
  <path
     id="Ellipse_4_copy"
     data-name="Ellipse 4 copy"
     class="cls-30"
     d="m 235.60757,379.58789 c 13.27285,0 24.03246,10.32788 24.03246,23.06769 0,12.73981 -10.75961,23.06769 -24.03246,23.06769 -13.27284,0 -24.03005,-10.32788 -24.03005,-23.06769 0,-12.73981 10.75962,-23.06769 24.03005,-23.06769 z m -11.57726,-13.3042 c 12.5951,0 22.80479,9.86237 22.80479,22.03056 0,12.16818 -10.20969,22.03056 -22.80479,22.03056 -12.59509,0 -22.80237,-9.86238 -22.80237,-22.03056 0,-12.16819 10.20969,-22.03056 22.80237,-22.03056 z"
     inkscape:connector-curvature="0"
     style="fill:#00a8ec;fill-rule:evenodd" />
  <path
     id="Rounded_Rectangle_1_copy"
     data-name="Rounded Rectangle 1 copy"
     class="cls-31"
     d="m 105.27658,438.19776 132.65609,0 a 7.718175,7.718175 0 0 1 0,15.43635 l -132.65609,0 a 7.718175,7.718175 0 1 1 0,-15.43635 z m 9.67352,-13.5068 87.50068,0 c 2.81231,0 5.09159,3.45629 5.09159,7.71817 0,4.26188 -2.27928,7.71818 -5.09159,7.71818 l -87.50068,0 c -2.81158,0 -5.09085,-3.4563 -5.09085,-7.71818 0,-4.26188 2.27927,-7.71817 5.09085,-7.71817 z m 0,0 87.50068,0 c 2.81231,0 5.09159,3.45629 5.09159,7.71817 0,4.26188 -2.27928,7.71818 -5.09159,7.71818 l -87.50068,0 c -2.81158,0 -5.09085,-3.4563 -5.09085,-7.71818 0,-4.26188 2.27927,-7.71817 5.09085,-7.71817 z"
     inkscape:connector-curvature="0"
     style="fill:#fd4068;fill-rule:evenodd;stroke:#fd4068;stroke-width:3.28987122px" />
  <path
     id="Rounded_Rectangle_1_copy_2"
     data-name="Rounded Rectangle 1 copy 2"
     class="cls-31"
     d="m 284.96529,428.30885 132.6561,0 a 7.718175,7.718175 0 0 1 0,15.43635 l -132.6561,0 a 7.718175,7.718175 0 1 1 0,-15.43635 z m 33.79353,-24.84287 87.49997,0 c 2.81231,0 5.09158,3.4563 5.09158,7.71818 0,4.26188 -2.27927,7.71817 -5.09158,7.71817 l -87.49997,0 c -2.8123,0 -5.09158,-3.45629 -5.09158,-7.71817 0,-4.26188 2.27928,-7.71818 5.09158,-7.71818 z m 26.29003,12.78323 87.49997,0 c 2.8123,0 5.09158,3.45629 5.09158,7.71817 0,4.26188 -2.27928,7.71817 -5.09158,7.71817 l -87.49997,0 c -2.81231,0 -5.09158,-3.45629 -5.09158,-7.71817 0,-4.26188 2.27927,-7.71817 5.09158,-7.71817 z"
     inkscape:connector-curvature="0"
     style="fill:#fd4068;fill-rule:evenodd;stroke:#fd4068;stroke-width:3.28987122px" />
  <path
     id="Rounded_Rectangle_1_copy_3"
     data-name="Rounded Rectangle 1 copy 3"
     class="cls-31"
     d="m 502.0389,467.86449 132.6561,0 a 7.7181728,7.7181728 0 0 1 0,15.43634 l -132.6561,0 a 7.7181728,7.7181728 0 1 1 0,-15.43634 z m -46.04131,-10.1301 87.49996,0 c 2.81231,0 5.09158,3.45629 5.09158,7.71817 0,4.26188 -2.27927,7.71817 -5.09158,7.71817 l -87.49996,0 c -2.81231,0 -5.09158,-3.45629 -5.09158,-7.71817 0,-4.26188 2.27927,-7.71817 5.09158,-7.71817 z"
     inkscape:connector-curvature="0"
     style="fill:#fd4068;fill-rule:evenodd;stroke:#fd4068;stroke-width:3.28987122px" />
  <path
     id="Rounded_Rectangle_1"
     data-name="Rounded Rectangle 1"
     class="cls-31"
     d="m 534.59994,476.06505 305.8326,0 c 5.59568,0 10.1301,3.67095 10.1301,8.20056 0,4.5296 -4.53442,8.20055 -10.1301,8.20055 l -305.8326,0 c -5.59567,0 -10.1301,-3.67095 -10.1301,-8.20055 0,-4.52961 4.53443,-8.20056 10.1301,-8.20056 z"
     inkscape:connector-curvature="0"
     style="fill:#fd4068;fill-rule:evenodd;stroke:#fd4068;stroke-width:3.28987122px" />
  <path
     id="Rounded_Rectangle_2"
     data-name="Rounded Rectangle 2"
     class="cls-32"
     d="m -46.192568,460.6287 106.12488,0 a 9.1653302,9.1653302 0 0 1 0,18.33066 l -106.12488,0 a 9.1653302,9.1653302 0 1 1 0,-18.33066 z"
     inkscape:connector-curvature="0"
     style="fill:#fd5578;fill-rule:evenodd;stroke:#ff5488;stroke-width:3.28987122px" />
  <path
     id="Rounded_Rectangle_3"
     data-name="Rounded Rectangle 3"
     class="cls-32"
     d="m -71.276628,443.7452 82.48797,0 c 5.32819,0 9.64772,3.77949 9.64772,8.44175 0,4.66226 -4.31953,8.44175 -9.64772,8.44175 l -82.48797,0 c -5.32819,0 -9.64772,-3.77949 -9.64772,-8.44175 0,-4.66226 4.31953,-8.44175 9.64772,-8.44175 z"
     inkscape:connector-curvature="0"
     style="fill:#fd5578;fill-rule:evenodd;stroke:#ff5488;stroke-width:3.28987122px" />
  <path
     id="Rounded_Rectangle_4"
     data-name="Rounded Rectangle 4"
     class="cls-32"
     d="m 801.35929,395.989 164.97595,0 c 5.59567,0 10.1301,3.67096 10.1301,8.20056 0,4.52961 -4.53443,8.20056 -10.1301,8.20056 l -164.97595,0 c -5.59567,0 -10.1301,-3.67095 -10.1301,-8.20056 0,-4.5296 4.53443,-8.20056 10.1301,-8.20056 z"
     inkscape:connector-curvature="0"
     style="fill:#fd5578;fill-rule:evenodd;stroke:#ff5488;stroke-width:3.28987122px" />
  <path
     id="Rounded_Rectangle_5"
     data-name="Rounded Rectangle 5"
     class="cls-32"
     d="m 857.07485,383.92936 163.52885,0 c 6.2613,0 11.336,3.67096 11.336,8.20056 0,4.5296 -5.0747,8.20056 -11.336,8.20056 l -163.52885,0 c -6.26137,0 -11.33606,-3.67096 -11.33606,-8.20056 0,-4.5296 5.07469,-8.20056 11.33606,-8.20056 z"
     inkscape:connector-curvature="0"
     style="fill:#fd5578;fill-rule:evenodd;stroke:#ff5488;stroke-width:3.28987122px" />
  <path
     id="Rounded_Rectangle_6"
     data-name="Rounded Rectangle 6"
     class="cls-32"
     d="m 881.19414,408.53104 179.92996,0 c 5.9936,0 10.8536,3.61789 10.8536,8.07996 0,4.46207 -4.86,8.07996 -10.8536,8.07996 l -179.92996,0 c -5.99364,0 -10.85368,-3.61789 -10.85368,-8.07996 0,-4.46207 4.86004,-8.07996 10.85368,-8.07996 z"
     inkscape:connector-curvature="0"
     style="fill:#fd5578;fill-rule:evenodd;stroke:#ff5488;stroke-width:3.28987122px" />
  <circle
     class="cls-33"
     cx="831.2829"
     cy="468.62549"
     r="38.688545"
     id="circle108"
     style="fill:#ff836a;stroke:#f8f400;stroke-width:2.58799982px" />
  <path
     id="Ellipse_1_copy"
     data-name="Ellipse 1 copy"
     class="cls-34"
     d="m 835.7944,430.53265 c 21.36728,0 38.68734,17.34901 38.68734,38.75247 0,21.40345 -17.32006,38.75005 -38.68734,38.75005 -21.36728,0 -38.68734,-17.34901 -38.68734,-38.75005 0,-21.40105 17.32006,-38.75247 38.68734,-38.75247 z m 20.31086,7.58552 c 21.72183,0 39.33132,16.90762 39.33132,37.76116 0,20.85354 -17.60949,37.76357 -39.33132,37.76357 -21.72184,0 -39.33133,-16.90762 -39.33133,-37.76357 0,-20.85595 17.60949,-37.76116 39.33133,-37.76116 z"
     inkscape:connector-curvature="0"
     style="fill:#611b4d;fill-rule:evenodd;stroke:#611b4d;stroke-width:2.58799982px" />
  <path
     id="Ellipse_1_copy_2"
     data-name="Ellipse 1 copy 2"
     class="cls-35"
     d="m 844.56659,439.69316 c 16.77738,3.06074 23.82744,18.18353 17.34177,32.19201 -6.1456,13.26561 -21.92685,21.27322 -36.17411,19.59693 -14.59217,-1.71488 -24.70057,-13.4055 -20.91143,-27.97838 3.99657,-15.35916 22.32482,-26.98948 39.74377,-23.81056 z m 15.70407,7.06213 c 15.74507,-0.48239 24.31948,12.70363 20.29156,27.742 -3.81809,14.26174 -17.28389,25.45068 -30.68939,26.76036 -13.73835,1.34344 -24.54861,-8.12097 -22.93262,-23.15693 1.70041,-15.80538 16.97275,-30.84134 33.33045,-31.34543 z"
     inkscape:connector-curvature="0"
     style="fill:#801f64;fill-rule:evenodd;stroke:#801f64;stroke-width:2.58799982px" />
  <path
     class="cls-36"
     d="M 859.65079,450.98099"
     id="path112"
     inkscape:connector-curvature="0"
     style="opacity:0.47999998;fill:#f697db;fill-rule:evenodd;stroke:#f697db;stroke-width:2.58799982px" />
  <path
     id="Ellipse_2_copy"
     data-name="Ellipse 2 copy"
     class="cls-36"
     d="m 859.16841,452.62833 c 4.18469,0 7.57587,3.24887 7.57587,7.2575 0,4.00862 -3.39118,7.25508 -7.57587,7.25508 -4.1847,0 -7.57587,-3.24887 -7.57587,-7.25508 0,-4.00622 3.39117,-7.2575 7.57587,-7.2575 z"
     inkscape:connector-curvature="0"
     style="opacity:0.47999998;fill:#f697db;fill-rule:evenodd;stroke:#f697db;stroke-width:2.58799982px" />
  <path
     id="Rounded_Rectangle_26"
     data-name="Rounded Rectangle 26"
     class="cls-37"
     d="m 848.23996,429.59682 c 0,0 -25.48203,5.67768 -35.33476,24.67886 -9.86238,19.01806 -5.06264,36.24406 -2.58077,46.17156 1.26144,5.03611 5.65356,6.95841 8.71671,6.63039 3.06315,-0.32802 7.63135,-3.76502 6.43744,-8.93861 0,0 -8.97237,-20.5641 1.98261,-36.7988 9.23769,-13.69011 28.09656,-18.92882 28.09656,-18.92882 7.44562,-3.39599 2.44569,-16.20575 -7.31779,-12.81458 z"
     inkscape:connector-curvature="0"
     style="fill:#a43a9c;fill-rule:evenodd;stroke:#a43a9c;stroke-width:2.58799982px" />
  <path
     id="Rounded_Rectangle_27_copy"
     data-name="Rounded Rectangle 27 copy"
     class="cls-38"
     d="m 813.22598,478.02353 c 6.76788,0 9.67184,1.65459 9.67184,8.57441 l 0.64639,9.89615 c 0.16643,5.95264 8.48517,6.00088 -4.19193,6.26619 -6.76546,0.13989 -11.7678,0.82005 -13.21737,-6.26619 l -1.29038,-9.23528 c 0,-6.92224 1.61599,-9.23528 8.38145,-9.23528 z"
     inkscape:connector-curvature="0"
     style="fill:#ffe2a3;fill-rule:evenodd;stroke:#ffe2a3;stroke-width:2.58799982px" />
  <path
     id="Rounded_Rectangle_27"
     data-name="Rounded Rectangle 27"
     class="cls-37"
     d="m 815.48355,479.34286 c 6.76546,0 9.67183,1.65458 9.67183,8.57441 l 0.64399,9.89614 c 0.16883,5.95264 8.48516,6.00088 -4.18952,6.26619 -6.76546,0.13989 -11.7678,0.82006 -13.21979,-6.26619 l -1.28797,-9.23527 c 0,-6.92224 1.616,-9.23528 8.38146,-9.23528 z"
     inkscape:connector-curvature="0"
     style="fill:#a43a9c;fill-rule:evenodd;stroke:#a43a9c;stroke-width:2.58799982px" />
  <path
     id="Rounded_Rectangle_23"
     data-name="Rounded Rectangle 23"
     class="cls-39"
     d="m 808.93757,498.98079 42.86963,0 c 4.36077,0 7.89665,3.62271 7.89665,8.09202 0,4.4693 -3.53588,8.09202 -7.89665,8.09202 l -42.86963,0 c -4.36076,0 -7.89665,-3.62272 -7.89665,-8.09202 0,-4.46931 3.53589,-8.09202 7.89665,-8.09202 z"
     inkscape:connector-curvature="0"
     style="fill:#ffc64a;fill-rule:evenodd;stroke:#ffc64a;stroke-width:2.58799982px" />
  <path
     id="Rounded_Rectangle_23_copy"
     data-name="Rounded Rectangle 23 copy"
     class="cls-34"
     d="m 813.56848,499.95762 42.86962,0 c 4.36077,0 7.89666,3.62271 7.89666,8.09202 0,4.4693 -3.53589,8.09202 -7.89666,8.09202 l -42.86962,0 c -4.36077,0 -7.89666,-3.62272 -7.89666,-8.09202 0,-4.46931 3.53589,-8.09202 7.89666,-8.09202 z"
     inkscape:connector-curvature="0"
     style="fill:#611b4d;fill-rule:evenodd;stroke:#611b4d;stroke-width:2.58799982px" />
  <path
     class="cls-40"
     d="m 808.71326,461.20515 -12.25018,11.21306 c 0,0 0.4052,5.13017 2.57835,9.89373 2.33475,5.11812 6.77028,10.22417 6.77028,10.22417 -0.79352,0.30149 -1.95125,-11.2613 1.61117,-13.19325 0,0 -1.00095,-1.19632 -0.32079,-8.90484 0.72841,-8.2488 1.61117,-9.23287 1.61117,-9.23287 z"
     id="path120"
     inkscape:connector-curvature="0"
     style="fill:#ff4924;fill-rule:evenodd" />
  <path
     id="Rounded_Rectangle_36_copy"
     data-name="Rounded Rectangle 36 copy"
     class="cls-41"
     d="m 847.11117,584.8093 4.98305,-0.2557 c 6.87641,-0.357 12.72051,6.8764 13.05336,16.1527 0,0 -4.79974,26.0464 -4.01104,47.9926 0.78147,21.7194 7.15378,39.3409 7.15378,39.3409 0.33285,9.2739 -4.97098,17.0813 -11.84739,17.4359 l -4.98064,0.2581 c -6.87882,0.3545 -6.51944,-18.9771 -13.05577,-16.1527 -0.13748,0.058 -5.95023,-21.459 -6.0467,-44.4615 -0.0892,-20.9163 2.90396,-42.8721 2.90396,-42.8721 -0.33285,-9.2763 4.97098,-17.0837 11.84739,-17.4382 z"
     inkscape:connector-curvature="0"
     style="fill:#611b4d;fill-rule:evenodd;stroke:#611b4d;stroke-width:3.00526357px" />
  <path
     class="cls-42"
     d="m 834.56432,575.1784 c 16.92933,0 30.65562,9.7756 30.65562,21.8352 0,12.0597 -13.72629,21.8328 -30.65562,21.8328 -16.92933,0 -30.65321,-9.7755 -30.65321,-21.8328 0,-12.0572 13.72388,-21.8352 30.65321,-21.8352 z"
     id="path123"
     inkscape:connector-curvature="0"
     style="fill:#a43a9c;fill-rule:evenodd;stroke:#a43a9c;stroke-width:3.00526357px" />
  <path
     id="Rounded_Rectangle_36"
     data-name="Rounded Rectangle 36"
     class="cls-42"
     d="m 811.81983,594.1314 5.90681,-0.2557 c 8.15715,-0.3545 15.08903,6.8788 15.48459,16.1551 0,0 -5.69457,26.0561 -4.75874,48.0046 0.92618,21.7267 8.48275,39.3507 8.48275,39.3507 0.39556,9.2762 -5.89475,17.0861 -14.04948,17.4406 l -5.90682,0.2581 c -8.15714,0.3546 -7.73264,-18.9843 -15.48458,-16.1575 -0.1616,0.06 -7.05489,-21.4638 -7.17067,-44.4712 -0.10371,-20.921 3.44665,-42.8816 3.44665,-42.8816 -0.39555,-9.2787 5.89476,-17.0862 14.04949,-17.4431 z"
     inkscape:connector-curvature="0"
     style="fill:#a43a9c;fill-rule:evenodd;stroke:#a43a9c;stroke-width:3.00526357px" />
  <path
     id="Rounded_Rectangle_29"
     data-name="Rounded Rectangle 29"
     class="cls-43"
     d="m 814.59837,510.1239 39.09737,0 c 6.87641,0 12.45279,5.4992 12.45279,12.28636 0,0 4.14369,15.84397 4.14369,32.04974 0,15.61 -4.14369,31.6011 -4.14369,31.6011 0,6.7871 -5.57638,12.2887 -12.45279,12.2887 l -39.09737,0 c -6.87641,0 -12.45279,-5.5016 -12.45279,-12.2887 0,0 3.22475,-15.6173 3.22475,-31.3792 0,-16.06106 -3.22475,-32.27164 -3.22475,-32.27164 0,-6.78716 5.57638,-12.28636 12.45279,-12.28636 z"
     inkscape:connector-curvature="0"
     style="fill:#881968;fill-rule:evenodd;stroke:#881968;stroke-width:0.72357869px" />
  <path
     id="Rounded_Rectangle_31"
     data-name="Rounded Rectangle 31"
     class="cls-44"
     d="m 831.0019,512.54065 26.63252,-0.49927 c 8.45381,-0.15919 15.39534,4.92275 15.50629,11.34571 0,0 4.71773,11.02734 4.91069,22.25005 0.19778,11.45666 -4.12922,23.11836 -4.12922,23.11836 0.11094,6.4254 -6.64969,11.7605 -15.1035,11.9197 l -26.63252,0.4969 c -8.4514,0.1592 -15.39535,-4.9203 -15.5063,-11.3457 0,0 3.82532,-9.8648 3.62996,-21.24671 -0.19537,-11.3023 -4.41142,-24.11929 -4.41142,-24.11929 -0.11095,-6.42538 6.6521,-11.76297 15.1035,-11.91975 z"
     inkscape:connector-curvature="0"
     style="fill:#fe5c81;fill-rule:evenodd;stroke:#fe5c81;stroke-width:3.00526357px" />
  <path
     id="Rounded_Rectangle_31_copy"
     data-name="Rounded Rectangle 31 copy"
     class="cls-45"
     d="m 844.86084,523.39915 17.76386,-0.35696 c 5.63668,-0.11095 10.26758,3.50694 10.33994,8.08237 0,0 3.14757,7.85324 3.27781,15.84638 0.13025,8.16196 -2.75442,16.46626 -2.75442,16.46626 0.0748,4.5754 -4.43554,8.3766 -10.07463,8.49 l -17.76144,0.3545 c -5.63909,0.1134 -10.26759,-3.5045 -10.34236,-8.0799 0,0 2.55183,-7.0284 2.41917,-15.13249 -0.13024,-8.05101 -2.94255,-17.18258 -2.94255,-17.18258 -0.0724,-4.57543 4.43795,-8.37663 10.07462,-8.48758 z"
     inkscape:connector-curvature="0"
     style="fill:#bc346e;fill-rule:evenodd;stroke:#bc346e;stroke-width:3.00526357px" />
  <path
     id="Rounded_Rectangle_31_copy_2"
     data-name="Rounded Rectangle 31 copy 2"
     class="cls-46"
     d="m 843.679,523.39915 16.06345,-0.35696 c 5.09881,-0.11095 9.28592,3.50694 9.35346,8.08237 0,0 2.84607,7.85324 2.96184,15.84638 0.1206,8.16196 -2.48911,16.46626 -2.48911,16.46626 0.0651,4.5754 -4.01345,8.3766 -9.11226,8.49 l -16.06345,0.3545 c -5.09882,0.1134 -9.28834,-3.5045 -9.35346,-8.0799 0,0 2.3058,-7.0284 2.18762,-15.13249 -0.11819,-8.05101 -2.66036,-17.18258 -2.66036,-17.18258 -0.0675,-4.57543 4.01345,-8.37663 9.11227,-8.48758 z"
     inkscape:connector-curvature="0"
     style="fill:#94256c;fill-rule:evenodd;stroke:#94256c;stroke-width:3.00526357px" />
  <path
     id="Rounded_Rectangle_32"
     data-name="Rounded Rectangle 32"
     class="cls-47"
     d="m 839.8585,527.94564 25.36144,0 a 0.6693103,0.6693103 0 0 1 0,1.33862 l -25.36144,0 a 0.6693103,0.6693103 0 1 1 0,-1.33862 z"
     inkscape:connector-curvature="0"
     style="fill:#c70551;fill-rule:evenodd;stroke:#c70551;stroke-width:3.00526357px" />
  <path
     id="Rounded_Rectangle_33"
     data-name="Rounded Rectangle 33"
     class="cls-48"
     d="m 864.44812,532.62478 a 1.6620603,1.6620603 0 0 1 1.65217,1.67147 c 0,0 2.4264,7.65305 2.4264,15.48458 0,8.20057 -2.4264,16.59647 -2.4264,16.59647"
     inkscape:connector-curvature="0"
     style="opacity:0.72000002;fill:#c70551;fill-rule:evenodd;stroke:#c70551;stroke-width:3.00526357px" />
  <path
     id="Rounded_Rectangle_34"
     data-name="Rounded Rectangle 34"
     class="cls-47"
     d="m 840.40842,533.29289 9.92509,0 a 1.8945702,1.8945702 0 0 1 0,3.78914 l -9.92509,0 a 1.8945702,1.8945702 0 1 1 0,-3.78914 z"
     inkscape:connector-curvature="0"
     style="fill:#c70551;fill-rule:evenodd;stroke:#c70551;stroke-width:3.00526357px" />
  <path
     id="Rounded_Rectangle_34_copy"
     data-name="Rounded Rectangle 34 copy"
     class="cls-47"
     d="m 840.40842,539.30824 9.92509,0 a 1.8945702,1.8945702 0 0 1 0,3.78914 l -9.92509,0 a 1.8945702,1.8945702 0 1 1 0,-3.78914 z m 0.2219,5.79345 9.92268,0 a 1.893365,1.893365 0 0 1 0,3.78673 l -9.92268,0 a 1.893365,1.893365 0 1 1 0,-3.78673 z m 0,5.56915 9.92268,0 a 1.89458,1.89458 0 0 1 0,3.78916 l -9.92268,0 a 1.89458,1.89458 0 1 1 0,-3.78916 z m 0.21949,5.79346 9.92508,0 a 1.8933643,1.8933643 0 0 1 0,3.7867 l -9.92508,0 a 1.8933643,1.8933643 0 0 1 0,-3.7867 z m -0.21949,5.5691 9.92268,0 a 1.8946,1.8946 0 0 1 0,3.7892 l -9.92268,0 a 1.8946,1.8946 0 1 1 0,-3.7892 z"
     inkscape:connector-curvature="0"
     style="fill:#c70551;fill-rule:evenodd;stroke:#c70551;stroke-width:3.00526357px" />
  <path
     id="Rounded_Rectangle_35"
     data-name="Rounded Rectangle 35"
     class="cls-47"
     d="M 856.3971,533.07099"
     inkscape:connector-curvature="0"
     style="fill:#c70551;fill-rule:evenodd;stroke:#c70551;stroke-width:3.00526357px" />
  <path
     id="Rounded_Rectangle_24_copy"
     data-name="Rounded Rectangle 24 copy"
     class="cls-49"
     d="m 841.29601,486.7306 4.43554,0 c 8.75289,0 15.84637,7.52039 15.84637,16.79908 l 0,36.95799 c 0,9.27869 -7.09348,16.80153 -15.84637,16.80153 l -4.43554,0 c -8.75289,0 -15.84878,-7.52284 -15.84878,-16.80153 l 0,-36.95799 c 0,-9.27869 7.09589,-16.79908 15.84878,-16.79908 z m 2.09114,13.06542 c 4.32459,0 7.83154,3.62754 7.83154,8.10167 l 0,28.74537 c 0,4.47412 -3.50695,8.10167 -7.83154,8.10167 -4.32458,0 -7.83394,-3.62755 -7.83394,-8.10167 l 0,-28.74537 c 0,-4.47413 3.50694,-8.10167 7.83394,-8.10167 z m -26.02471,18.29207 52.04702,0 0,51.74311 -52.04702,0 0,-51.74311 z"
     inkscape:connector-curvature="0"
     style="opacity:0.8;fill:#e10052;fill-rule:evenodd;stroke:#e10052;stroke-width:2.58799982px" />
  <path
     id="Rounded_Rectangle_24_copy_2"
     data-name="Rounded Rectangle 24 copy 2"
     class="cls-50"
     d="m 841.29601,486.28439 4.43554,0 c 8.75289,0 15.84637,7.5204 15.84637,16.79909 l 0,36.9604 c 0,9.27628 -7.09348,16.79912 -15.84637,16.79912 l -4.43554,0 c -8.75289,0 -15.84878,-7.52284 -15.84878,-16.79912 l 0,-36.9604 c 0,-9.27869 7.09589,-16.79909 15.84878,-16.79909 z m 2.09114,13.06542 c 4.32459,0 7.83154,3.62754 7.83154,8.10167 l 0,28.74537 c 0,4.47413 -3.50695,8.10167 -7.83154,8.10167 -4.32458,0 -7.83394,-3.62754 -7.83394,-8.10167 l 0,-28.74537 c 0,-4.47413 3.50694,-8.10167 7.83394,-8.10167 z m -26.02471,18.29448 52.04702,0 0,51.74311 -52.04702,0 0,-51.74311 z m 31.64692,-27.12696 c 12.97136,0 23.48737,12.76634 23.48737,28.51623 0,15.7499 -10.51601,28.51865 -23.48737,28.51865 -12.97135,0 -23.48736,-12.76875 -23.48736,-28.51865 0,-15.74989 10.51601,-28.51623 23.48736,-28.51623 z"
     inkscape:connector-curvature="0"
     style="opacity:0.62999998;fill:#a3094a;fill-rule:evenodd;stroke:#a3094a;stroke-width:2.58799982px" />
  <path
     id="Rounded_Rectangle_30_copy_3"
     data-name="Rounded Rectangle 30 copy 3"
     class="cls-51"
     d="m 804.30908,511.02113 c 6.82817,0.20261 12.08135,5.16877 11.73645,11.09488 0,0 4.34629,15.5497 3.38393,32.02079 -1.10707,18.9553 -7.5421,39.1866 -7.5421,39.1866 -0.34732,5.9261 -6.16248,10.5666 -12.98824,10.364 -6.82575,-0.2026 -12.08376,-5.1687 -11.73644,-11.0948 0,0 6.75581,-19.3003 7.84118,-37.877 0.98889,-16.95341 -3.68302,-33.33041 -3.68302,-33.33041 0.34491,-5.92611 6.16007,-10.56666 12.98824,-10.36406 z m -2.4264,0 c 6.82817,0.20261 12.08376,5.16877 11.73645,11.09488 0,0 4.34629,15.5497 3.38393,32.02079 -1.10707,18.9553 -7.5421,39.1866 -7.5421,39.1866 -0.3449,5.9261 -6.16248,10.5666 -12.98824,10.364 -6.82576,-0.2026 -12.08135,-5.1687 -11.73644,-11.0948 0,0 6.75581,-19.3003 7.84118,-37.877 0.98889,-16.95341 -3.68302,-33.33041 -3.68302,-33.33041 0.34732,-5.92611 6.16248,-10.56666 12.98824,-10.36406 z"
     inkscape:connector-curvature="0"
     style="fill:#f8f400;fill-rule:evenodd;stroke:#f8f400;stroke-width:3.00526357px" />
  <path
     id="Rounded_Rectangle_30_copy_5"
     data-name="Rounded Rectangle 30 copy 5"
     class="cls-42"
     d="m 804.30908,511.02113 c 6.82817,0.20261 12.08135,5.16877 11.73645,11.09488 0,0 4.34629,15.5497 3.38393,32.02079 -1.10707,18.9553 -7.5421,39.1866 -7.5421,39.1866 -0.34732,5.9261 -6.16248,10.5666 -12.98824,10.364 -6.82575,-0.2026 -12.08376,-5.1687 -11.73644,-11.0948 0,0 6.75581,-19.3003 7.84118,-37.877 0.98889,-16.95341 -3.68302,-33.33041 -3.68302,-33.33041 0.34491,-5.92611 6.16007,-10.56666 12.98824,-10.36406 z"
     inkscape:connector-curvature="0"
     style="fill:#a43a9c;fill-rule:evenodd;stroke:#a43a9c;stroke-width:3.00526357px" />
  <path
     id="Rounded_Rectangle_30"
     data-name="Rounded Rectangle 30"
     class="cls-52"
     d="m 822.85199,515.26372 c 4.30288,-0.11095 7.87736,3.08968 7.98349,7.15137 0,0 3.57689,10.46295 3.86873,21.75077 0.33526,12.99304 -2.60971,27.05224 -2.60971,27.05224 0.10372,4.0616 -3.29952,7.448 -7.60481,7.5614 -4.30529,0.1133 -7.87736,-3.0873 -7.98107,-7.149 0,0 3.19822,-13.4369 2.87019,-26.16943 -0.30149,-11.61826 -4.12922,-22.63595 -4.12922,-22.63595 -0.10371,-4.06169 3.29952,-7.44804 7.6024,-7.5614 z"
     inkscape:connector-curvature="0"
     style="fill:#ff765a;fill-rule:evenodd;stroke:#a43a9c;stroke-width:3.00526357px" />
  <path
     id="Rounded_Rectangle_30_copy"
     data-name="Rounded Rectangle 30 copy"
     class="cls-53"
     d="m 819.54524,516.15613 c 4.30288,-0.11336 7.87736,3.08727 7.98107,7.14896 0,0 3.5793,10.46295 3.86873,21.75319 0.33526,12.99302 -2.6097,27.05222 -2.6097,27.05222 0.10371,4.0617 -3.29952,7.4456 -7.6024,7.559 -4.30288,0.1133 -7.87736,-3.0873 -7.98349,-7.149 0,0 3.19822,-13.4344 2.8702,-26.16702 -0.29908,-11.62067 -4.12923,-22.63836 -4.12923,-22.63836 -0.10371,-4.06169 3.29952,-7.44563 7.60482,-7.55899 z"
     inkscape:connector-curvature="0"
     style="fill:#ff765a;fill-rule:evenodd;stroke:#ff765a;stroke-width:3.00526357px" />
  <path
     id="Rounded_Rectangle_30_copy_2"
     data-name="Rounded Rectangle 30 copy 2"
     class="cls-54"
     d="m 819.54524,515.70751 c 4.30288,-0.11336 7.87736,3.08486 7.98107,7.14414 0,0 3.5793,10.45812 3.86873,21.74354 0.33526,12.98581 -2.6097,27.03771 -2.6097,27.03771 0.10371,4.0593 -3.29952,7.4432 -7.6024,7.5566 -4.30288,0.1133 -7.87736,-3.0873 -7.98349,-7.1466 0,0 3.19822,-13.4272 2.8702,-26.15251 -0.29908,-11.61344 -4.12923,-22.62872 -4.12923,-22.62872 -0.10371,-4.05927 3.29952,-7.4408 7.60482,-7.55416 z m -5.38102,-6.47603 c 8.70948,0 15.76919,12.3129 15.76919,27.50082 0,15.1879 -7.05971,27.5032 -15.76919,27.5032 -8.70947,0 -15.76678,-12.3129 -15.76678,-27.5032 0,-15.19033 7.05972,-27.50082 15.76678,-27.50082 z"
     inkscape:connector-curvature="0"
     style="fill:#ff4924;fill-rule:evenodd;stroke:#ff4924;stroke-width:3.00526357px" />
  <path
     id="Rounded_Rectangle_26_copy"
     data-name="Rounded Rectangle 26 copy"
     class="cls-55"
     d="m 809.35725,444.84263 c 0,0 -4.64538,2.33474 -6.84988,10.00709 -2.19486,7.64823 -1.739,9.1388 -1.60152,10.13251 0.40279,2.89914 5.01681,2.99321 4.77803,-0.849 a 54.28601,54.28601 0 0 1 1.739,-8.08719 c 1.08296,-3.67096 5.42443,-7.76883 5.42443,-7.76883 2.1635,-2.11767 -0.82006,-5.63667 -3.49006,-3.43458 z"
     inkscape:connector-curvature="0"
     style="opacity:0.75;fill:#ffc0b3;fill-rule:evenodd;stroke:#ffc0b3;stroke-width:2.58799982px" />
  <path
     id="Rounded_Rectangle_28"
     data-name="Rounded Rectangle 28"
     class="cls-55"
     d="m 802.91016,469.55766 a 2.2824084,2.2824084 0 0 1 2.25757,2.30822 l 0,1.64735"
     inkscape:connector-curvature="0"
     style="opacity:0.75;fill:#ffc0b3;fill-rule:evenodd;stroke:#ffc0b3;stroke-width:2.58799982px" />
  <path
     class="cls-56"
     d="m 943.18554,400.275 c 23.3523,0 42.28594,18.78411 42.28594,41.95551 0,23.1714 -18.93364,41.95309 -42.28594,41.95309 -23.3523,0 -42.28594,-18.7841 -42.28594,-41.95309 0,-23.16899 18.93123,-41.95551 42.28594,-41.95551 z"
     id="path144"
     inkscape:connector-curvature="0"
     style="fill:#ff836a;fill-rule:evenodd;stroke:#f8f400;stroke-width:2.58799982px" />
  <path
     id="Ellipse_1_copy-2"
     data-name="Ellipse 1 copy"
     class="cls-34"
     d="m 948.11794,400.98893 c 23.3547,0 42.28594,18.78411 42.28594,41.95551 0,23.1714 -18.93124,41.95309 -42.28594,41.95309 -23.35471,0 -42.28594,-18.7841 -42.28594,-41.95309 0,-23.16899 18.93123,-41.95551 42.28594,-41.95551 z m 22.19939,8.21262 c 23.74305,0 42.99267,18.30413 42.99267,40.8822 0,22.57807 -19.24962,40.88461 -42.99267,40.88461 -23.74303,0 -42.99022,-18.30413 -42.99022,-40.88461 0,-22.58048 19.24719,-40.8822 42.99022,-40.8822 z"
     inkscape:connector-curvature="0"
     style="fill:#611b4d;fill-rule:evenodd;stroke:#611b4d;stroke-width:2.58799982px" />
  <path
     id="Ellipse_1_copy_2-2"
     data-name="Ellipse 1 copy 2"
     class="cls-35"
     d="m 957.70535,410.90679 c 18.3379,3.3164 26.04401,19.68616 18.95535,34.85237 -6.71722,14.36304 -23.96492,23.03151 -39.53875,21.21774 -15.95008,-1.85719 -26.99913,-14.51499 -22.85544,-30.29142 4.36801,-16.62784 24.39908,-29.22052 43.43884,-25.77869 z m 17.1657,7.64822 c 17.21153,-0.5258 26.58185,13.75282 22.18013,30.03093 -4.1751,15.44117 -18.89508,27.55388 -33.54514,28.97209 -15.01667,1.45681 -26.83271,-8.79148 -25.06476,-25.06959 1.85718,-17.11263 18.55014,-33.39074 36.42977,-33.93343 z"
     inkscape:connector-curvature="0"
     style="fill:#801f64;fill-rule:evenodd;stroke:#801f64;stroke-width:2.58799982px" />
  <path
     class="cls-36"
     d="m 974.1933,423.12803 c 6.42297,0 11.63032,5.1157 11.63032,11.42531 0,6.3096 -5.20735,11.42531 -11.63032,11.42531 -6.42297,0 -11.62791,-5.11571 -11.62791,-11.42531 0,-6.30961 5.20736,-11.42531 11.62791,-11.42531 z"
     id="path148"
     inkscape:connector-curvature="0"
     style="opacity:0.47999998;fill:#f697db;fill-rule:evenodd;stroke:#f697db;stroke-width:2.58799982px" />
  <path
     id="Ellipse_2_copy-2"
     data-name="Ellipse 2 copy"
     class="cls-36"
     d="m 973.66509,424.91286 c 4.57302,0 8.28256,3.51659 8.28256,7.85565 0,4.33906 -3.70954,7.85324 -8.28256,7.85324 -4.57302,0 -8.28015,-3.51659 -8.28015,-7.85324 0,-4.33665 3.70713,-7.85565 8.28015,-7.85565 z"
     inkscape:connector-curvature="0"
     style="opacity:0.47999998;fill:#f697db;fill-rule:evenodd;stroke:#f697db;stroke-width:2.58799982px" />
  <path
     id="Rounded_Rectangle_26-2"
     data-name="Rounded Rectangle 26"
     class="cls-37"
     d="m 961.72122,399.97592 c 0,0 -27.85296,6.14801 -38.62222,26.71935 -10.77891,20.58823 -5.53297,39.23968 -2.81955,49.98723 1.37721,5.45096 6.17936,7.53246 9.52712,7.1779 3.34776,-0.35455 8.34045,-4.07616 7.0356,-9.67666 0,0 -9.80691,-22.26451 2.16832,-39.84024 10.09634,-14.8213 30.70868,-20.49416 30.70868,-20.49416 8.13785,-3.67578 2.67483,-17.54196 -7.99795,-13.87342 z"
     inkscape:connector-curvature="0"
     style="fill:#a43a9c;fill-rule:evenodd;stroke:#a43a9c;stroke-width:2.58799982px" />
  <path
     id="Rounded_Rectangle_27_copy-2"
     data-name="Rounded Rectangle 27 copy"
     class="cls-38"
     d="m 923.45114,452.40644 c 7.39497,0 10.57148,1.78965 10.57148,9.28351 l 0.70429,10.71138 c 0.1833,6.44467 9.27628,6.49773 -4.58026,6.78234 -7.39497,0.15437 -12.86281,0.89 -14.44745,-6.78234 l -1.41098,-9.99745 c 0,-7.49386 1.76794,-9.99744 9.16292,-9.99744 z"
     inkscape:connector-curvature="0"
     style="fill:#ffe2a3;fill-rule:evenodd;stroke:#ffe2a3;stroke-width:2.58799982px" />
  <path
     id="Rounded_Rectangle_27-2"
     data-name="Rounded Rectangle 27"
     class="cls-37"
     d="m 925.91854,453.8343 c 7.39498,0 10.57149,1.78965 10.57149,9.28351 l 0.70428,10.71138 c 0.18331,6.44709 9.27387,6.49774 -4.58025,6.78476 -7.39498,0.15195 -12.86282,0.88759 -14.44746,-6.78476 l -1.41098,-9.99745 c 0,-7.49386 1.76795,-9.99744 9.16292,-9.99744 z"
     inkscape:connector-curvature="0"
     style="fill:#a43a9c;fill-rule:evenodd;stroke:#a43a9c;stroke-width:2.58799982px" />
  <path
     id="Rounded_Rectangle_23-2"
     data-name="Rounded Rectangle 23"
     class="cls-39"
     d="m 918.76235,475.09304 46.85654,0 c 4.76839,0 8.6323,3.92421 8.6323,8.76254 0,4.83833 -3.86391,8.76012 -8.6323,8.76012 l -46.85654,0 c -4.76597,0 -8.6323,-3.92179 -8.6323,-8.76012 0,-4.83833 3.86633,-8.76254 8.6323,-8.76254 z"
     inkscape:connector-curvature="0"
     style="fill:#ffc64a;fill-rule:evenodd;stroke:#ffc64a;stroke-width:2.58799982px" />
  <path
     id="Rounded_Rectangle_23_copy-2"
     data-name="Rounded Rectangle 23 copy"
     class="cls-34"
     d="m 923.82499,476.15188 46.85654,0 c 4.76597,0 8.6323,3.92179 8.6323,8.76012 0,4.83833 -3.86633,8.76013 -8.6323,8.76013 l -46.85654,0 c -4.76839,0 -8.6323,-3.9218 -8.6323,-8.76013 0,-4.83833 3.86391,-8.76012 8.6323,-8.76012 z"
     inkscape:connector-curvature="0"
     style="fill:#611b4d;fill-rule:evenodd;stroke:#611b4d;stroke-width:2.58799982px" />
  <path
     class="cls-40"
     d="m 918.51874,434.19637 -13.39103,12.13924 c 0,0 0.4438,5.55467 2.81955,10.71138 2.55182,5.5402 7.3998,11.06834 7.3998,11.06834 -0.8683,0.32802 -2.13215,-12.18989 1.7607,-14.28103 0,0 -1.09501,-1.29762 -0.35214,-9.64048 0.79594,-8.93138 1.76312,-9.99745 1.76312,-9.99745 z"
     id="path156"
     inkscape:connector-curvature="0"
     style="fill:#ff4924;fill-rule:evenodd" />
  <path
     id="Rounded_Rectangle_36_copy-2"
     data-name="Rounded Rectangle 36 copy"
     class="cls-41"
     d="m 960.48872,568.015 5.44372,-0.2774 c 7.51557,-0.3859 13.90477,7.4433 14.27139,17.4865 0,0 -5.24836,28.2003 -4.3873,51.9578 0.85382,23.5163 7.81947,42.5923 7.81947,42.5923 0.3642,10.0432 -5.43407,18.4946 -12.94964,18.8781 l -5.44373,0.2798 c -7.51798,0.3835 -7.12484,-20.5472 -14.27138,-17.4889 -0.14713,0.065 -6.50256,-23.2317 -6.60869,-48.1349 -0.0965,-22.6456 3.17651,-46.4151 3.17651,-46.4151 -0.3642,-10.0409 5.43408,-18.4947 12.94965,-18.8782 z"
     inkscape:connector-curvature="0"
     style="fill:#611b4d;fill-rule:evenodd;stroke:#611b4d;stroke-width:3.00526357px" />
  <path
     class="cls-42"
     d="m 946.77449,557.5882 c 18.50432,0 33.50652,10.5836 33.50652,23.6394 0,13.0557 -15.0022,23.6369 -33.50652,23.6369 -18.50432,0 -33.50652,-10.5836 -33.50652,-23.6369 0,-13.0534 15.0022,-23.6394 33.50652,-23.6394 z"
     id="path159"
     inkscape:connector-curvature="0"
     style="fill:#a43a9c;fill-rule:evenodd;stroke:#a43a9c;stroke-width:3.00526357px" />
  <path
     id="Rounded_Rectangle_36-2"
     data-name="Rounded Rectangle 36"
     class="cls-42"
     d="m 921.91474,578.1089 6.45432,-0.2797 c 8.91449,-0.3835 16.49277,7.448 16.92451,17.4913 0,0 -6.22278,28.2075 -5.20012,51.9722 1.01301,23.5211 9.27145,42.5995 9.27145,42.5995 0.43415,10.0457 -6.44226,18.4995 -15.35675,18.883 l -6.45673,0.2798 c -8.91449,0.3835 -8.4514,-20.5521 -16.92451,-17.4913 -0.17607,0.063 -7.71094,-23.239 -7.83636,-48.147 -0.11577,-22.6504 3.76503,-46.4248 3.76503,-46.4248 -0.43174,-10.0457 6.44467,-18.4995 15.35916,-18.883 z"
     inkscape:connector-curvature="0"
     style="fill:#a43a9c;fill-rule:evenodd;stroke:#a43a9c;stroke-width:3.00526357px" />
  <path
     id="Rounded_Rectangle_29-2"
     data-name="Rounded Rectangle 29"
     class="cls-43"
     d="m 924.94895,487.15751 42.73455,0 c 7.51799,0 13.61052,5.95505 13.61052,13.30179 0,0 4.5296,17.15364 4.5296,34.69801 0,16.89799 -4.5296,34.21319 -4.5296,34.21319 0,7.3468 -6.09253,13.3042 -13.61052,13.3042 l -42.73455,0 c -7.51557,0 -13.61052,-5.9574 -13.61052,-13.3042 0,0 3.52383,-16.9076 3.52383,-33.972 0,-17.3876 -3.52383,-34.9392 -3.52383,-34.9392 0,-7.34674 6.09495,-13.30179 13.61052,-13.30179 z"
     inkscape:connector-curvature="0"
     style="fill:#881968;fill-rule:evenodd;stroke:#881968;stroke-width:0.72357869px" />
  <path
     id="Rounded_Rectangle_31-2"
     data-name="Rounded Rectangle 31"
     class="cls-44"
     d="m 942.88164,489.77445 29.10716,-0.54027 c 9.2401,-0.17125 16.82798,5.32795 16.94858,12.28395 0,0 5.1567,11.93664 5.369,24.08794 0.2171,12.40455 -4.5127,25.02859 -4.5127,25.02859 0.1206,6.95354 -7.26958,12.73254 -16.50968,12.90384 l -29.10957,0.5402 c -9.23769,0.1713 -16.82561,-5.3279 -16.94862,-12.2839 0,0 4.18228,-10.68244 3.96762,-23.00257 -0.21466,-12.23572 -4.82386,-26.11396 -4.82386,-26.11396 -0.12059,-6.956 7.27197,-12.73257 16.51207,-12.90382 z"
     inkscape:connector-curvature="0"
     style="fill:#fe5c81;fill-rule:evenodd;stroke:#fe5c81;stroke-width:3.00526357px" />
  <path
     id="Rounded_Rectangle_31_copy-2"
     data-name="Rounded Rectangle 31 copy"
     class="cls-45"
     d="m 958.02855,501.52778 19.41362,-0.38349 c 6.16248,-0.12301 11.22511,3.79396 11.30471,8.74806 0,0 3.4394,8.50205 3.5817,17.15846 0.1423,8.8349 -3.0101,17.82657 -3.0101,17.82657 0.08,4.9541 -4.85036,9.06882 -11.01284,9.18942 l -19.41362,0.3859 c -6.16248,0.1206 -11.2227,-3.79634 -11.30471,-8.75044 0,0 2.78819,-7.60722 2.64589,-16.38182 -0.14231,-8.71671 -3.2151,-18.6008 -3.2151,-18.6008 -0.082,-4.9541 4.84797,-9.06885 11.01045,-9.19186 z"
     inkscape:connector-curvature="0"
     style="fill:#bc346e;fill-rule:evenodd;stroke:#bc346e;stroke-width:3.00526357px" />
  <path
     id="Rounded_Rectangle_31_copy_2-2"
     data-name="Rounded Rectangle 31 copy 2"
     class="cls-46"
     d="m 956.73576,501.52778 17.55643,-0.38349 c 5.57397,-0.12301 10.15181,3.79396 10.22417,8.74806 0,0 3.11139,8.50205 3.23922,17.15846 0.13024,8.8349 -2.72307,17.82657 -2.72307,17.82657 0.0724,4.9541 -4.38489,9.06882 -9.95886,9.18942 l -17.55884,0.3859 c -5.57155,0.1206 -10.1494,-3.79634 -10.22175,-8.75044 0,0 2.52046,-7.60722 2.39022,-16.38182 -0.12783,-8.71671 -2.90638,-18.6008 -2.90638,-18.6008 -0.0748,-4.9541 4.38489,-9.06885 9.95886,-9.19186 z"
     inkscape:connector-curvature="0"
     style="fill:#94256c;fill-rule:evenodd;stroke:#94256c;stroke-width:3.00526357px" />
  <path
     id="Rounded_Rectangle_32-2"
     data-name="Rounded Rectangle 32"
     class="cls-47"
     d="m 952.5583,506.45294 27.72271,0 a 0.72358,0.72358 0 0 1 0,1.44716 l -27.72271,0 a 0.72358,0.72358 0 1 1 0,-1.44716 z"
     inkscape:connector-curvature="0"
     style="fill:#c70551;fill-rule:evenodd;stroke:#c70551;stroke-width:3.00526357px" />
  <path
     id="Rounded_Rectangle_33-2"
     data-name="Rounded Rectangle 33"
     class="cls-48"
     d="m 979.43683,511.51799 a 1.8074996,1.8074996 0 0 1 1.80654,1.80895 c 0,0 2.65312,8.28739 2.65312,16.76532 0,8.87831 -2.65312,17.96887 -2.65312,17.96887"
     inkscape:connector-curvature="0"
     style="opacity:0.72000002;fill:#c70551;fill-rule:evenodd;stroke:#c70551;stroke-width:3.00526357px" />
  <path
     id="Rounded_Rectangle_34-2"
     data-name="Rounded Rectangle 34"
     class="cls-47"
     d="m 953.16128,512.24157 10.84886,0 a 2.05014,2.05014 0 0 1 0,4.10028 l -10.84886,0 a 2.05014,2.05014 0 1 1 0,-4.10028 z"
     inkscape:connector-curvature="0"
     style="fill:#c70551;fill-rule:evenodd;stroke:#c70551;stroke-width:3.00526357px" />
  <path
     id="Rounded_Rectangle_34_copy-2"
     data-name="Rounded Rectangle 34 copy"
     class="cls-47"
     d="m 953.16128,518.75378 10.84886,0 a 2.05014,2.05014 0 0 1 0,4.10028 l -10.84886,0 a 2.05014,2.05014 0 1 1 0,-4.10028 z m 0.24119,6.27101 10.84645,0 a 2.05014,2.05014 0 0 1 0,4.10028 l -10.84645,0 a 2.05014,2.05014 0 1 1 0,-4.10028 z m 0,6.03224 10.84645,0 a 2.05014,2.05014 0 0 1 0,4.10028 l -10.84645,0 a 2.05014,2.05014 0 1 1 0,-4.10028 z m 0.2412,6.27101 10.84644,0 a 2.05014,2.05014 0 0 1 0,4.10028 l -10.84644,0 a 2.05014,2.05014 0 1 1 0,-4.10028 z m -0.2412,6.02983 10.84645,0 a 2.05014,2.05014 0 0 1 0,4.10028 l -10.84645,0 a 2.05014,2.05014 0 1 1 0,-4.10028 z"
     inkscape:connector-curvature="0"
     style="fill:#c70551;fill-rule:evenodd;stroke:#c70551;stroke-width:3.00526357px" />
  <path
     id="Rounded_Rectangle_35-2"
     data-name="Rounded Rectangle 35"
     class="cls-47"
     d="M 970.63812,512.00038"
     inkscape:connector-curvature="0"
     style="fill:#c70551;fill-rule:evenodd;stroke:#c70551;stroke-width:3.00526357px" />
  <path
     id="Rounded_Rectangle_24_copy-2"
     data-name="Rounded Rectangle 24 copy"
     class="cls-49"
     d="m 954.13088,461.82984 4.84797,0 c 9.56812,0 17.32248,8.14267 17.32248,18.18836 l 0,40.0139 c 0,10.04327 -7.75436,18.18595 -17.32248,18.18595 l -4.84797,0 c -9.56813,0 -17.32248,-8.14268 -17.32248,-18.18595 l 0,-40.0139 c 0,-10.04569 7.75435,-18.18836 17.32248,-18.18836 z m 2.28409,14.14597 c 4.72979,0 8.56235,3.92662 8.56235,8.77218 l 0,31.12112 c 0,4.84316 -3.83256,8.76978 -8.56235,8.76978 -4.72979,0 -8.55993,-3.92662 -8.55993,-8.76978 l 0,-31.12112 c 0,-4.84556 3.83255,-8.77218 8.55993,-8.77218 z m -28.44388,19.80435 56.88776,0 0,56.01944 -56.88776,0 0,-56.01944 z"
     inkscape:connector-curvature="0"
     style="opacity:0.8;fill:#e10052;fill-rule:evenodd;stroke:#e10052;stroke-width:2.58799982px" />
  <path
     id="Rounded_Rectangle_24_copy_2-2"
     data-name="Rounded Rectangle 24 copy 2"
     class="cls-50"
     d="m 954.13088,461.34746 4.84797,0 c 9.56812,0 17.32248,8.14267 17.32248,18.18835 l 0,40.01391 c 0,10.04327 -7.75436,18.18594 -17.32248,18.18594 l -4.84797,0 c -9.56813,0 -17.32248,-8.14267 -17.32248,-18.18594 l 0,-40.01391 c 0,-10.04568 7.75435,-18.18835 17.32248,-18.18835 z m 2.28409,14.14596 c 4.72979,0 8.56235,3.92662 8.56235,8.77219 l 0,31.12112 c 0,4.84315 -3.83256,8.76977 -8.56235,8.76977 -4.72979,0 -8.55993,-3.92662 -8.55993,-8.76977 l 0,-31.12112 c 0,-4.84557 3.83255,-8.77219 8.55993,-8.77219 z m -28.44388,19.80435 56.88776,0 0,56.01943 -56.88776,0 0,-56.01943 z m 34.59189,-29.36765 c 14.17732,0 25.67257,13.82277 25.67257,30.87511 0,17.05233 -11.49525,30.87269 -25.67257,30.87269 -14.17732,0 -25.67257,-13.82277 -25.67257,-30.87269 0,-17.04993 11.49525,-30.87511 25.67257,-30.87511 z"
     inkscape:connector-curvature="0"
     style="opacity:0.62999998;fill:#a3094a;fill-rule:evenodd;stroke:#a3094a;stroke-width:2.58799982px" />
  <path
     id="Rounded_Rectangle_30_copy_3-2"
     data-name="Rounded Rectangle 30 copy 3"
     class="cls-51"
     d="m 913.70453,488.12952 c 7.46251,0.21707 13.20531,5.59567 12.82664,12.0114 0,0 4.74909,16.83286 3.6999,34.66666 -1.21079,20.52312 -8.24397,42.42582 -8.24397,42.42582 -0.37868,6.4157 -6.73411,11.4374 -14.19903,11.2203 -7.46492,-0.2171 -13.20531,-5.5981 -12.82664,-12.0138 0,0 7.38533,-20.8946 8.56959,-41.00522 1.08295,-18.35478 -4.0231,-36.08487 -4.0231,-36.08487 0.37626,-6.41573 6.7341,-11.43978 14.19661,-11.22029 z m -2.65312,0 c 7.46251,0.21707 13.20772,5.59567 12.82905,12.0114 0,0 4.74909,16.83286 3.69749,34.66666 -1.20838,20.52312 -8.24397,42.42582 -8.24397,42.42582 -0.37627,6.4157 -6.73411,11.4374 -14.19662,11.2203 -7.46251,-0.2171 -13.20531,-5.5981 -12.82664,-12.0138 0,0 7.38292,-20.8946 8.56959,-41.00522 1.08295,-18.35478 -4.02551,-36.08487 -4.02551,-36.08487 0.37867,-6.41573 6.7341,-11.43978 14.19661,-11.22029 z"
     inkscape:connector-curvature="0"
     style="fill:#f8f400;fill-rule:evenodd;stroke:#f8f400;stroke-width:3.00526357px" />
  <path
     id="Rounded_Rectangle_30_copy_5-2"
     data-name="Rounded Rectangle 30 copy 5"
     class="cls-42"
     d="m 913.70453,488.12952 c 7.46251,0.21707 13.20531,5.59567 12.82664,12.0114 0,0 4.74909,16.83286 3.6999,34.66666 -1.21079,20.52312 -8.24397,42.42582 -8.24397,42.42582 -0.37868,6.4157 -6.73411,11.4374 -14.19903,11.2203 -7.46492,-0.2171 -13.20531,-5.5981 -12.82664,-12.0138 0,0 7.38533,-20.8946 8.56959,-41.00522 1.08295,-18.35478 -4.0231,-36.08487 -4.0231,-36.08487 0.37626,-6.41573 6.7341,-11.43978 14.19661,-11.22029 z"
     inkscape:connector-curvature="0"
     style="fill:#a43a9c;fill-rule:evenodd;stroke:#a43a9c;stroke-width:3.00526357px" />
  <path
     id="Rounded_Rectangle_30-2"
     data-name="Rounded Rectangle 30"
     class="cls-52"
     d="m 933.97197,492.72424 c 4.70326,-0.12301 8.61059,3.34293 8.72395,7.73988 0,0 3.91215,11.32642 4.23052,23.55008 0.36662,14.06637 -2.85331,29.2881 -2.85331,29.2881 0.11336,4.3969 -3.60583,8.0606 -8.31151,8.1836 -4.70567,0.123 -8.60817,-3.3429 -8.72394,-7.7399 0,0 3.49488,-14.5463 3.1355,-28.33047 -0.32561,-12.57821 -4.5103,-24.50761 -4.5103,-24.50761 -0.11578,-4.39695 3.60583,-8.06067 8.30909,-8.18368 z"
     inkscape:connector-curvature="0"
     style="fill:#ff765a;fill-rule:evenodd;stroke:#a43a9c;stroke-width:3.00526357px" />
  <path
     id="Rounded_Rectangle_30_copy-2"
     data-name="Rounded Rectangle 30 copy"
     class="cls-53"
     d="m 930.35649,493.68901 c 4.70326,-0.12301 8.61059,3.34294 8.72395,7.73988 0,0 3.91215,11.32642 4.23052,23.55008 0.3642,14.06637 -2.85331,29.28803 -2.85331,29.28803 0.11336,4.397 -3.60583,8.0607 -8.31151,8.1837 -4.70567,0.123 -8.61058,-3.3429 -8.72394,-7.7399 0,0 3.49488,-14.54633 3.1355,-28.3305 -0.32561,-12.57821 -4.51272,-24.50761 -4.51272,-24.50761 -0.11336,-4.39695 3.60825,-8.06067 8.31151,-8.18368 z"
     inkscape:connector-curvature="0"
     style="fill:#ff765a;fill-rule:evenodd;stroke:#ff765a;stroke-width:3.00526357px" />
  <path
     id="Rounded_Rectangle_30_copy_2-2"
     data-name="Rounded Rectangle 30 copy 2"
     class="cls-54"
     d="m 930.35649,493.2018 c 4.70326,-0.12301 8.61059,3.34052 8.72395,7.73747 0,0 3.91215,11.3216 4.23052,23.53802 0.3642,14.05913 -2.85331,29.27361 -2.85331,29.27361 0.11336,4.3945 -3.60583,8.0558 -8.31151,8.1788 -4.70567,0.123 -8.61058,-3.3405 -8.72394,-7.735 0,0 3.49488,-14.53914 3.1355,-28.31608 -0.32561,-12.57339 -4.51272,-24.49555 -4.51272,-24.49555 -0.11336,-4.39454 3.60825,-8.05826 8.31151,-8.18127 z m -5.88028,-7.00906 c 9.51988,0 17.23564,13.32832 17.23564,29.77285 0,16.44453 -7.71576,29.77526 -17.23564,29.77526 -9.51989,0 -17.23565,-13.33073 -17.23565,-29.77526 0,-16.44453 7.71818,-29.77285 17.23565,-29.77285 z"
     inkscape:connector-curvature="0"
     style="fill:#ff4924;fill-rule:evenodd;stroke:#ff4924;stroke-width:3.00526357px" />
  <path
     id="Rounded_Rectangle_26_copy-2"
     data-name="Rounded Rectangle 26 copy"
     class="cls-55"
     d="m 919.22303,416.48317 c 0,0 -5.07711,2.52529 -7.48663,10.83197 -2.40228,8.28015 -1.90301,9.89614 -1.75347,10.97186 0.44138,3.13792 5.48231,3.23922 5.22182,-0.91894 a 58.297771,58.297771 0 0 1 1.90301,-8.7553 c 1.18426,-3.97486 5.92853,-8.4104 5.92853,-8.4104 2.3661,-2.29374 -0.89724,-6.10218 -3.81326,-3.71919 z"
     inkscape:connector-curvature="0"
     style="opacity:0.75;fill:#ffc0b3;fill-rule:evenodd;stroke:#ffc0b3;stroke-width:2.58799982px" />
  <path
     id="Rounded_Rectangle_28-2"
     data-name="Rounded Rectangle 28"
     class="cls-55"
     d="m 912.17537,443.24111 a 2.4813926,2.4813926 0 0 1 2.4674,2.49634 l 0,1.78242"
     inkscape:connector-curvature="0"
     style="opacity:0.75;fill:#ffc0b3;fill-rule:evenodd;stroke:#ffc0b3;stroke-width:2.58799982px" />
</svg>
