<svg xmlns="http://www.w3.org/2000/svg" viewBox="0 0 1044.74 555.43">
    <defs>
        <style>
            .cls-2, .cls-5 {
                fill: #fff;
            }

            .cls-2 {
                stroke: #fff;
                stroke-width: 40px;
            }

            .cls-3, .cls-6 {
                fill: #399103;
            }

            .cls-3 {
                stroke: #424242;
                stroke-width: 15px;
            }

            .cls-4 {
                fill: #f8ee7b;
            }

            .cls-7 {
                fill: #FF0000;
            }
        </style>
    </defs>
    <title>Avocado_logo_transparent</title>
    <g id="AVO">
        <path id="A" class="cls-5" d="M699.54-1119.8,837.81-835h58.65l-169.37-335-52.11.13Z" transform="translate(-506.6 1267.13)" />
        <circle id="O" class="cls-2" cx="856.99" cy="264.79" r="167.75" />
        <path id="V" class="cls-5" d="M1197.12-1169.87l-58.61-.21L1004.18-884.86,865.91-1169.62H807.26l169.37,335,52.11-.13Z" transform="translate(-506.6 1267.13)" />
    </g>
    <g id="Images">
        <path id="Green" class="cls-3" d="M1232.67-1000.76a125.34,125.34,0,0,1,1-13c3.4-33,13.92-86.75,57.37-160.78,33-56.25,49.52-84.38,70.72-85.09,26.54-.89,46.12,32.06,79.12,87.6,39.58,66.6,49.47,123.11,52.53,154.17.83,8.43,1.25,12.64,1.12,17.1-1.53,52.59-48.78,130.92-130.92,130.92A130.92,130.92,0,0,1,1232.67-1000.76Z" transform="translate(-506.6 1267.13)" />
        <path id="Yellow" class="cls-4" d="M1275.87-1006.33a84,84,0,0,1,.65-8.7c2.28-22.12,9.33-58.12,38.44-107.73,22.12-37.69,33.18-56.53,47.38-57,17.78-.6,30.9,21.48,53,58.69,26.52,44.62,33.14,82.48,35.2,103.29a90.81,90.81,0,0,1,.75,11.45c-1,35.23-32.68,87.71-87.71,87.71A87.71,87.71,0,0,1,1275.87-1006.33Z" transform="translate(-506.6 1267.13)" />
        <circle id="circle" class="cls-5" cx="856.99" cy="264.46" r="42.81" />
    </g>
    <g id="Strip">
        <path class="cls-6" d="M565.21-834.58l63.91-136.31-52.61-.75L506.6-834.79Z" transform="translate(-506.6 1267.13)" />
        <path class="cls-6" d="M565.21-834.58l63.91-136.31-52.61-.75L506.6-834.79Z" transform="translate(-506.6 1267.13)" />
    </g>
</svg>